<svg width="166" height="80" viewBox="0 0 166 80" fill="none" xmlns="http://www.w3.org/2000/svg">
<g clip-path="url(#clip0_55_377)">
<path fill-rule="evenodd" clip-rule="evenodd" d="M112.41 24.6639C111.235 25.2617 104.335 28.5242 95.4923 27.3168C95.5839 26.8932 95.6583 26.4633 95.727 26.0339C101.613 25.3259 106.393 24.3158 109.441 22.6092C112.915 20.659 114.433 16.009 112.679 12.5437C112.634 12.4567 112.508 12.4393 112.445 12.5147C111.482 13.6293 105.441 20.2581 95.9221 22.3191C95.8992 21.82 95.8534 21.3263 95.7847 20.8331C100.41 18.1918 104.92 15.1444 107.069 12.358C110.318 8.14953 110.021 2.77419 106.926 0.0405159C106.857 -0.0175151 106.754 -0.000105818 106.708 0.0695315C105.728 1.69482 96.5753 16.613 86.523 23.0565C86.4874 23.0784 86.4482 23.1033 86.4069 23.1298C86.3279 23.18 86.2404 23.2355 86.1504 23.2886C85.8641 23.4627 85.8298 23.8399 86.076 24.0666C87.2338 25.1232 87.9557 26.5976 87.9557 28.2345C87.9557 31.0789 85.8126 34.254 82.9067 33.958C79.9513 33.6542 78.6756 32.4011 77.4368 31.1846C76.9722 30.7286 76.5129 30.2772 75.9722 29.8834C69.5648 24.5429 76.6601 11.3429 85.159 12.6374C86.8441 12.8927 87.3713 14.0422 87.4743 14.3962C88.0477 13.9087 88.5749 12.225 88.3684 11.1166C87.7831 7.95596 83.1455 7.97088 78.2278 7.98704C75.0078 7.99741 71.6683 8.0086 69.2671 7.1286C69.1522 8.65523 71.1354 11.0992 73.038 12.0045C69.7886 14.843 66.8769 20.5723 66.2868 27.5671C65.7023 20.5723 62.7849 14.8488 59.5355 12.0045C61.4324 11.0988 63.4213 8.65523 63.3068 7.1286C60.9093 8.0057 57.475 7.98166 54.1772 7.95803C49.118 7.92197 44.3797 7.88839 44.199 11.1166C43.9928 12.2254 44.5258 13.9087 45.093 14.3962C45.1961 14.048 45.729 12.8985 47.4084 12.6374C55.9077 11.3429 62.9968 24.5429 56.5952 29.8834C56.1003 30.2096 55.5155 30.6353 54.8926 31.0884C52.9556 32.4977 50.6521 34.1736 49.5462 33.9584C46.6693 33.4478 44.4971 31.0793 44.4971 28.2349C44.4971 26.598 45.219 25.1236 46.3769 24.067C46.6231 23.8465 46.5887 23.4693 46.3024 23.289C46.2125 23.236 46.1249 23.1804 46.0464 23.1303C46.0047 23.1037 45.9658 23.0789 45.9298 23.0569C35.8894 16.6188 26.7426 1.70642 25.7508 0.069117C25.705 -0.00632344 25.5962 -0.0237328 25.5275 0.0342983C22.4384 2.77419 22.1406 8.14373 25.3901 12.3518C27.5394 15.1381 32.0555 18.1856 36.6747 20.8268C36.6117 21.3201 36.5659 21.8138 36.543 22.3128C27.0347 20.2581 20.9942 13.6409 20.0257 12.5205C19.9627 12.4451 19.831 12.4625 19.7905 12.5495C18.0425 16.0148 19.5615 20.6644 23.0286 22.615C26.0776 24.3216 30.8571 25.3317 36.743 26.0397C36.806 26.4691 36.8804 26.899 36.9778 27.3226C28.1463 28.5242 21.2519 25.2737 20.0654 24.6697C19.9795 24.6233 19.8707 24.6813 19.8593 24.7742C19.4122 28.4778 21.7333 31.4556 25.6936 32.1172C29.6825 32.7788 38.0955 30.7763 38.0955 30.7763C38.2616 31.1593 38.4452 31.5369 38.6399 31.9083C33.0694 35.1298 25.258 34.7875 24.0715 34.7178C23.9856 34.712 23.9169 34.7817 23.9226 34.8571C24.0085 38.7406 27.768 39.8084 31.0923 39.3558C33.9291 38.9669 37.8951 37.0627 40.6976 34.9151C40.9785 35.2285 41.2763 35.5245 41.5859 35.8092C38.9037 40.2382 32.6109 42.0608 30.5651 42.2233C30.4678 42.2349 30.4105 42.3336 30.4563 42.4206C31.8031 44.7659 34.835 45.5493 38.1532 43.9414C40.1246 42.9839 42.5777 40.482 44.2624 37.6724C44.6464 37.8639 45.0534 38.0264 45.4603 38.1715C44.4174 43.4656 39.1961 46.6929 38.2849 47.2214C38.2162 47.2621 38.199 47.3549 38.2505 47.4188C39.8035 49.1775 43.3855 49.2123 45.5748 46.6697C46.9216 45.1025 47.9531 42.1885 48.538 38.6768C50.1486 38.6768 54.0799 42.2871 55.3236 45.5667V45.6016C50.2631 45.352 46.0624 50.0074 51.5699 57.815C52.057 58.552 46.8877 59.7363 44.4579 59.4403C43.8219 58.7725 42.8992 58.3489 41.8673 58.3489C41.4145 58.3489 40.8644 58.4243 40.1651 58.7261C39.5462 58.9993 38.9156 59.8813 38.9156 59.8813C38.4914 60.5201 38.2853 61.3035 38.4285 62.1338C38.6465 63.4399 39.7237 64.5193 41.0992 64.7982C42.0734 64.9955 42.9847 64.804 43.7184 64.3742L45.1969 62.894C47.2313 61.4602 51.0141 60.4447 54.1547 60.4447C54.7048 60.4447 54.9686 59.9742 54.7735 59.5099C53.3523 56.0563 56.4128 53.5601 59.576 55.5916C60.9571 56.4799 62.3612 58.227 63.416 61.141C58.2234 62.4065 51.7016 65.9008 50.3834 69.7147C49.8734 71.1891 51.5527 73.1916 53.5928 73.5982C53.6672 73.6156 53.7416 73.5634 53.7588 73.488C54.8247 67.7935 60.8937 63.556 64.0516 62.836L64.0851 62.9259C64.1403 63.0735 64.1632 63.1348 64.1857 63.1962C64.2017 63.2397 64.2172 63.2836 64.2442 63.3578C64.2618 63.4071 64.2843 63.4701 64.3154 63.556C60.8766 65.1986 57.5355 68.6581 56.5842 72.768C56.1486 74.6544 58.2291 76.3493 59.9481 76.814C60.034 76.8372 60.1203 76.7792 60.1261 76.6921C60.4524 71.4909 62.7334 67.0735 64.7739 65.0594C64.8311 65.4482 64.8712 65.8428 64.8998 66.2436C64.8998 66.2436 62.8078 72.1122 62.8078 76.3957C62.8078 78.387 65.7481 79.7802 66.178 79.9775C66.7223 79.7802 69.6565 78.3928 69.6565 76.3957C69.6565 72.1122 67.5649 66.2436 67.5649 66.2436C67.5935 65.8428 67.6336 65.4482 67.6908 65.0594C69.7313 67.0677 72.0123 71.4851 72.3386 76.6863C72.3444 76.7734 72.4303 76.8314 72.5166 76.8082C74.2356 76.3435 76.3219 74.6428 75.8863 72.7622C74.9292 68.6465 71.5939 65.187 68.155 63.5502C68.1927 63.4457 68.218 63.3748 68.2372 63.3213L68.2847 63.1904C68.3072 63.129 68.3301 63.0677 68.3853 62.9197L68.4188 62.8302C71.5824 63.5502 77.6515 67.7935 78.7116 73.4822C78.7231 73.5576 78.8032 73.604 78.8781 73.5924C80.9124 73.1858 82.5975 71.1833 82.0817 69.7089C80.7635 65.895 74.2413 62.4007 69.0491 61.1352C70.1092 58.2212 71.5076 56.4683 72.8887 55.5858C76.0523 53.5485 79.1128 56.0505 77.6916 59.5041C77.5026 59.9684 77.7603 60.4389 78.3104 60.4389H79.8408C82.6433 60.6768 85.6633 61.5937 87.3999 62.8243L88.8784 64.3046C89.6122 64.7344 90.5234 64.9259 91.4976 64.7286C92.8731 64.4496 93.9504 63.3645 94.1684 62.0641C94.3058 61.2281 94.1054 60.4447 93.6812 59.8117C93.6812 59.8117 93.051 58.9238 92.4318 58.6565C91.7328 58.3489 91.1823 58.2793 90.7295 58.2793C89.698 58.2793 88.7753 58.7029 88.1394 59.3707C85.7152 59.6724 80.5455 58.4882 81.0269 57.7454L80.8781 57.8963C80.8801 57.8867 80.8805 57.8764 80.8813 57.866C80.8826 57.8453 80.8838 57.8246 80.8952 57.8092C86.397 50.0015 82.202 45.352 77.1415 45.5957V45.5493C78.391 42.2755 82.3165 38.671 83.9214 38.671C84.5001 42.1885 85.5373 45.0967 86.8842 46.6639C89.0792 49.2123 92.6555 49.1775 94.2084 47.4129C94.26 47.3549 94.2485 47.2563 94.1741 47.2156C93.2628 46.6871 88.042 43.4598 86.9987 38.1657C87.4113 38.0206 87.8126 37.8581 88.1966 37.6666C89.8817 40.4762 92.3344 42.9781 94.3058 43.9356C97.6186 45.5377 100.656 44.7601 102.003 42.4148C102.054 42.3336 101.991 42.2291 101.894 42.2175C99.8419 42.055 93.5495 40.2324 90.8731 35.8034C91.1823 35.5191 91.4804 35.2231 91.7614 34.9093C94.5639 37.0627 98.5295 38.9669 101.367 39.3499C104.691 39.8026 108.45 38.7348 108.542 34.8455C108.542 34.7701 108.473 34.7062 108.393 34.7062C107.212 34.7759 99.3949 35.1182 93.8244 31.8967C94.0195 31.5253 94.197 31.1477 94.363 30.7647C94.363 30.7647 102.782 32.7671 106.765 32.1056C110.725 31.444 113.046 28.4662 112.599 24.7626C112.599 24.6755 112.496 24.6175 112.41 24.6639ZM78.8494 15.6144C80.0642 15.2372 82.1905 15.2082 83.6633 16.5085C83.6633 15.1153 82.4658 13.8789 82.0531 13.7164C81.5087 13.815 79.6458 14.6279 78.8494 15.6144ZM50.4807 13.7222C51.0251 13.8208 52.8819 14.6279 53.6787 15.6144C52.4635 15.2314 50.3433 15.2024 48.8644 16.5143C48.8644 15.1153 50.0623 13.8789 50.4807 13.7222Z" fill="#C7C7C7"/>
<path d="M54.6084 28.0999C53.6514 28.0999 52.8755 28.8862 52.8755 29.8561V55.3077C52.8755 56.0704 53.3614 56.7461 54.0783 56.9799L65.6554 60.7502C66 60.8625 66.3708 60.8625 66.7155 60.7502L78.2929 56.9799C79.0095 56.7461 79.4953 56.0704 79.4953 55.3077V29.8561C79.4953 28.8862 78.7195 28.0999 77.7624 28.0999H54.6084Z" fill="#585858" stroke="white" stroke-width="5"/>
<path d="M73.9005 42.9007C73.6097 42.9007 73.3373 42.9803 73.1033 43.1183L67.9079 37.8814C67.9124 37.8312 67.9152 37.7807 67.9152 37.7293C67.9152 36.8489 67.2073 36.1355 66.3341 36.1355C65.4609 36.1355 64.7529 36.8489 64.7529 37.7293C64.7529 37.847 64.766 37.9614 64.7897 38.0717L59.9202 40.1011C59.6306 39.7318 59.1828 39.4943 58.6793 39.4943C57.8061 39.4943 57.0981 40.2076 57.0981 41.088C57.0981 41.9685 57.8061 42.6818 58.6793 42.6818C58.8732 42.6818 59.0585 42.6466 59.2298 42.5823L60.6764 44.6155L59.2957 46.5562C59.1006 46.4731 58.891 46.4304 58.6793 46.4306C57.8061 46.4306 57.0981 47.144 57.0981 48.0244C57.0981 48.9048 57.8061 49.6182 58.6793 49.6182C59.1587 49.6182 59.5881 49.4026 59.8781 49.0628L64.7783 51.105C64.7619 51.1975 64.7525 51.2924 64.7525 51.3894C64.7525 52.2694 65.4605 52.9832 66.3337 52.9832C67.2069 52.9832 67.9148 52.2694 67.9148 51.3894C67.9148 51.3396 67.9124 51.2903 67.9079 51.2418L73.1896 45.9179C73.4031 46.0265 73.6445 46.0878 73.9001 46.0878C74.7737 46.0878 75.4812 45.3745 75.4812 44.494C75.4812 43.6136 74.7737 42.9003 73.9001 42.9003L73.9005 42.9007ZM67.876 46.4124C67.7165 45.7023 67.087 45.1718 66.3341 45.1718C65.8081 45.1718 65.3427 45.4308 65.0551 45.8288L63.4695 44.6051L65.1296 43.3239C65.4196 43.6675 65.8515 43.8855 66.3341 43.8855C67.0543 43.8855 67.6617 43.3997 67.8527 42.7357L72.3553 44.1579C72.332 44.2665 72.3197 44.3788 72.3197 44.494C72.3197 44.6652 72.3467 44.8298 72.3962 44.9844L67.876 46.412V46.4124ZM62.8449 47.0636L61.9374 45.7881L63.1852 44.8252L64.8821 46.1351C64.7999 46.3273 64.7562 46.5341 64.7537 46.7436L62.8449 47.064V47.0636ZM60.056 47.2397L61.6625 46L62.4646 47.127L60.1771 47.5112C60.1452 47.4163 60.1047 47.3256 60.0564 47.2393L60.056 47.2397ZM60.2302 41.4014L62.6723 41.8114L61.6719 43.2174L60.0159 41.9394C60.1178 41.7774 60.1914 41.5958 60.2302 41.4014ZM63.0527 41.8752L64.759 42.1616C64.7558 42.2047 64.7533 42.2478 64.7533 42.2918C64.7533 42.56 64.8196 42.8128 64.9357 43.0346L63.1856 44.3854L61.9472 43.4296L63.0531 41.8752H63.0527ZM62.9006 44.6051L61.7357 45.5042L61.103 44.6151L61.7447 43.7131L62.9006 44.6051ZM72.8232 43.3289C72.6731 43.4698 72.5515 43.639 72.4653 43.8271L67.9124 42.3892C67.9144 42.3568 67.9157 42.3245 67.9157 42.2922C67.9157 41.4118 67.2077 40.6984 66.3345 40.6984C65.6245 40.6984 65.0241 41.1701 64.8241 41.8196L63.2772 41.5597L65.2073 38.8472C65.3546 38.9984 65.5301 39.1184 65.7237 39.2001C65.9172 39.2819 66.1248 39.3238 66.3345 39.3235C67.0146 39.3235 67.5942 38.8907 67.8175 38.2835L72.8232 43.3293V43.3289ZM64.9014 38.4029C64.9263 38.4572 64.9545 38.5098 64.9852 38.5608L62.8969 41.4959L60.2601 41.0532C60.2557 40.8274 60.2034 40.6052 60.1067 40.4016L64.9014 38.4033V38.4029ZM59.5431 42.4228C59.636 42.3618 59.7223 42.2914 59.8 42.2126L61.4699 43.5013L60.8903 44.3162L59.5435 42.4232L59.5431 42.4228ZM60.8899 44.9144L61.4605 45.716L59.8535 46.9562C59.7772 46.8711 59.692 46.7945 59.5996 46.7278L60.8899 44.9144ZM60.0777 48.768C60.225 48.4874 60.2855 48.1683 60.2511 47.8524L62.6887 47.4433L64.9492 50.6205C64.923 50.6686 64.8989 50.7179 64.8772 50.7689L60.0773 48.7685L60.0777 48.768ZM67.8183 50.8385C67.5958 50.2296 67.0155 49.7952 66.3341 49.7952C65.869 49.7952 65.4511 49.9975 65.1619 50.3195L63.0695 47.3786L64.786 47.0905C64.9353 47.8147 65.5717 48.3585 66.3341 48.3585C67.2073 48.3585 67.9152 47.6451 67.9152 46.7647L72.5393 45.304C72.633 45.4632 72.7528 45.6049 72.8935 45.7222L67.8179 50.8381L67.8183 50.8385Z" fill="white"/>
<path d="M91.9787 44.8066L92.3214 45.5394H92.6809V45.493L91.3308 42.5612H91.1721L89.8094 45.493V45.5394H90.173L90.5157 44.8066H91.9787ZM91.2474 43.1162L91.8617 44.5015H90.6327L91.2474 43.1162ZM94.8723 44.1201C94.7472 43.6754 94.35 43.4511 93.9402 43.4466C93.4134 43.4424 92.8703 43.7985 92.8703 44.5102C92.8703 45.2219 93.4053 45.5734 93.932 45.5734C94.3541 45.5734 94.7721 45.3359 94.8932 44.853H94.5758C94.467 45.1411 94.2036 45.2812 93.9361 45.2812C93.5725 45.2812 93.2003 45.0142 93.2003 44.5102C93.2003 44.0061 93.5848 43.7433 93.9529 43.7433C94.2077 43.7433 94.4502 43.866 94.559 44.1201H94.8723ZM97.24 44.1201C97.1144 43.6754 96.7173 43.4511 96.3079 43.4466C95.7811 43.4424 95.2376 43.7985 95.2376 44.5102C95.2376 45.2219 95.7729 45.5734 96.2993 45.5734C96.7214 45.5734 97.1394 45.3359 97.2609 44.853H96.9431C96.8343 45.1411 96.5713 45.2812 96.3034 45.2812C95.9398 45.2812 95.568 45.0142 95.568 44.5102C95.568 44.0061 95.9525 43.7433 96.3202 43.7433C96.5754 43.7433 96.8179 43.866 96.9263 44.1201H97.24ZM99.7328 44.5143C99.7328 43.0951 97.6093 43.0951 97.6093 44.5143C97.6093 45.9336 99.7328 45.9249 99.7328 44.5143ZM97.9398 44.5143C97.9398 43.4764 99.4068 43.4764 99.4068 44.5143C99.4068 45.5523 97.9398 45.5564 97.9398 44.5143ZM101.855 45.5394V46.0352H102.131L102.148 45.2725H101.88V43.4975H101.566V45.243H100.555V43.4975H100.237V45.5394H101.855ZM104.101 44.082L104.067 44.8575V45.5394H104.385V43.4934H104.276L102.905 44.9293L102.93 44.2221V43.4975H102.613V45.5394H102.709L104.101 44.082ZM106.375 45.1709C106.375 45.5436 106.534 45.607 106.869 45.5523L106.864 45.3359C106.618 45.3699 106.631 45.2385 106.631 45.0142V44.1624C106.643 43.6289 106.204 43.4511 105.748 43.4511C105.481 43.4511 105.213 43.5104 105.017 43.6119L105.071 43.866C105.243 43.7645 105.469 43.7176 105.698 43.7176C105.974 43.7176 106.334 43.8109 106.334 44.1541V44.4041C106.133 44.2897 105.87 44.2345 105.64 44.2345C105.222 44.2345 104.846 44.4762 104.858 44.9421C104.871 45.3529 105.209 45.5734 105.581 45.5734C105.887 45.5734 106.229 45.4548 106.375 45.1709ZM106.33 44.8488C106.262 45.1539 105.903 45.2895 105.64 45.2895C105.414 45.2895 105.193 45.1879 105.18 44.9293C105.168 44.637 105.426 44.4886 105.694 44.4886C105.899 44.4886 106.145 44.5479 106.33 44.654V44.8488ZM108.912 45.5394V46.0352H109.188L109.205 45.2725H108.938V43.4975H108.624V45.243H107.613V43.4975H107.295V45.5394H108.912ZM111.159 44.082L111.125 44.8575V45.5394H111.443V43.4934H111.334L109.963 44.9293L109.988 44.2221V43.4975H109.671V45.5394H109.767L111.159 44.082ZM111.899 45.5054V45.5394H112.246L112.802 44.8318H113.274V45.5394H113.604V43.4975H112.681C112.267 43.4975 111.983 43.7856 111.983 44.1624C111.983 44.4675 112.2 44.705 112.476 44.7726L111.899 45.5054ZM112.764 44.5566C112.509 44.5566 112.313 44.4124 112.313 44.167C112.313 43.9216 112.505 43.7686 112.764 43.7686H113.274V44.5566H112.764ZM116.799 43.7939V45.5394H117.121V43.4975H115.688L115.533 44.8488C115.495 45.1709 115.454 45.3487 115.082 45.2895L115.073 45.5394C115.654 45.624 115.797 45.4291 115.851 44.8658L115.968 43.7939H116.799ZM119.111 45.1709C119.111 45.5436 119.27 45.607 119.604 45.5523L119.6 45.3359C119.354 45.3699 119.366 45.2385 119.366 45.0142V44.1624C119.378 43.6289 118.94 43.4511 118.484 43.4511C118.217 43.4511 117.949 43.5104 117.753 43.6119L117.807 43.866C117.978 43.7645 118.204 43.7176 118.434 43.7176C118.71 43.7176 119.069 43.8109 119.069 44.1541V44.4041C118.868 44.2897 118.605 44.2345 118.375 44.2345C117.957 44.2345 117.581 44.4762 117.594 44.9421C117.606 45.3529 117.945 45.5734 118.317 45.5734C118.622 45.5734 118.965 45.4548 119.111 45.1709ZM119.065 44.8488C118.998 45.1539 118.639 45.2895 118.375 45.2895C118.149 45.2895 117.928 45.1879 117.916 44.9293C117.903 44.637 118.162 44.4886 118.43 44.4886C118.635 44.4886 118.881 44.5479 119.065 44.654V44.8488ZM121.03 43.5145C120.662 43.5187 120.357 43.7263 120.231 43.9974C120.29 43.5527 120.524 43.362 120.896 43.1796C121.193 43.0316 121.79 42.8874 121.657 42.4256H121.335C121.41 42.7179 121.05 42.773 120.762 42.9131C120.031 43.2646 119.859 43.8196 119.951 44.6499C120.01 45.1539 120.336 45.5775 120.984 45.5775C121.665 45.5775 122.012 45.0648 122.016 44.5438C122.025 43.9763 121.644 43.5017 121.03 43.5145ZM120.257 44.5396C120.261 44.167 120.532 43.8068 120.988 43.8068C121.444 43.8068 121.694 44.1458 121.699 44.5355C121.703 44.9462 121.435 45.2853 120.984 45.2853C120.562 45.2853 120.257 44.9885 120.257 44.5396ZM124.518 44.5143C124.518 43.0951 122.395 43.0951 122.395 44.5143C122.395 45.9336 124.518 45.9249 124.518 44.5143ZM122.725 44.5143C122.725 43.4764 124.192 43.4764 124.192 44.5143C124.192 45.5523 122.725 45.5564 122.725 44.5143ZM125.354 43.8366C125.366 43.5145 125.149 43.4383 124.831 43.4934L124.835 43.7388C125.102 43.7052 125.073 43.917 125.073 44.1794V46.5898H125.399V45.3529C126.118 45.8445 127 45.4167 127 44.5056C127 43.9212 126.678 43.4424 126.089 43.4424C125.801 43.4424 125.542 43.527 125.354 43.8366ZM125.391 44.4211C125.403 44.0696 125.642 43.7433 126.026 43.7433C126.478 43.7433 126.666 44.099 126.666 44.5056C126.666 45.2555 125.938 45.4843 125.391 45.0524V44.4211ZM128.863 45.1709C128.863 45.5436 129.022 45.607 129.356 45.5523L129.352 45.3359C129.105 45.3699 129.118 45.2385 129.118 45.0142V44.1624C129.13 43.6289 128.691 43.4511 128.236 43.4511C127.968 43.4511 127.701 43.5104 127.504 43.6119L127.559 43.866C127.73 43.7645 127.956 43.7176 128.186 43.7176C128.461 43.7176 128.821 43.8109 128.821 44.1541V44.4041C128.62 44.2897 128.357 44.2345 128.127 44.2345C127.709 44.2345 127.333 44.4762 127.345 44.9421C127.358 45.3529 127.697 45.5734 128.068 45.5734C128.374 45.5734 128.716 45.4548 128.863 45.1709ZM128.817 44.8488C128.75 45.1539 128.39 45.2895 128.127 45.2895C127.902 45.2895 127.68 45.1879 127.667 44.9293C127.655 44.637 127.914 44.4886 128.181 44.4886C128.386 44.4886 128.633 44.5479 128.817 44.654V44.8488ZM130.531 45.5353V43.7898H131.242V43.4975H129.503V43.7898H130.214V45.5353H130.531ZM133.596 44.5143C133.596 43.0951 131.473 43.0951 131.473 44.5143C131.473 45.9336 133.596 45.9249 133.596 44.5143ZM131.803 44.5143C131.803 43.4764 133.27 43.4764 133.27 44.5143C133.27 45.5523 131.803 45.5564 131.803 44.5143ZM134.432 43.8366C134.444 43.5145 134.227 43.4383 133.909 43.4934L133.913 43.7388C134.181 43.7052 134.151 43.917 134.151 44.1794V46.5898H134.477V45.3529C135.196 45.8445 136.079 45.4167 136.079 44.5056C136.079 43.9212 135.757 43.4424 135.167 43.4424C134.879 43.4424 134.62 43.527 134.432 43.8366ZM134.469 44.4211C134.482 44.0696 134.72 43.7433 135.104 43.7433C135.556 43.7433 135.744 44.099 135.744 44.5056C135.744 45.2555 135.017 45.4843 134.469 45.0524V44.4211ZM138.075 44.082L138.041 44.8575V45.5394H138.359V43.4934H138.25L136.879 44.9293L136.904 44.2221V43.4975H136.587V45.5394H136.683L138.075 44.082ZM139.329 42.6544C139.367 42.9935 139.626 43.2012 139.944 43.2012C140.278 43.2012 140.521 42.9848 140.558 42.6544C140.491 42.6461 140.404 42.6333 140.337 42.6291C140.299 42.8368 140.136 42.9425 139.939 42.9425C139.726 42.9384 139.584 42.8281 139.555 42.6291L139.329 42.6544ZM139.091 45.5394H138.995V43.4975H139.312V44.2221L139.288 44.9293L140.659 43.4934H140.767V45.5394H140.45V44.8575L140.483 44.082L139.091 45.5394ZM90.0895 48.087V50.1284H90.4196V48.3833H91.5398V50.1284H91.8658V48.087H90.0895ZM94.4956 49.1033C94.4956 47.6845 92.3721 47.6845 92.3721 49.1033C92.3721 50.5222 94.4956 50.5143 94.4956 49.1033ZM92.7026 49.1033C92.7026 48.0654 94.1697 48.0654 94.1697 49.1033C94.1697 50.1413 92.7026 50.1454 92.7026 49.1033ZM96.4371 48.4256C96.4494 48.1036 96.2322 48.0273 95.9144 48.0824L95.9185 48.3282C96.1864 48.2942 96.157 48.506 96.157 48.7688V51.1792H96.4829V49.9423C97.202 50.4335 98.0838 50.0057 98.0838 49.0951C98.0838 48.5102 97.7619 48.0318 97.1725 48.0318C96.8842 48.0318 96.6253 48.1164 96.4371 48.4256ZM96.4748 49.0101C96.487 48.6586 96.7255 48.3324 97.1099 48.3324C97.5615 48.3324 97.7496 48.6884 97.7496 49.0951C97.7496 49.8449 97.0224 50.0737 96.4748 49.6414V49.0101ZM99.9463 49.7599C99.9463 50.133 100.105 50.1964 100.44 50.1413L100.435 49.9253C100.189 49.9593 100.202 49.8279 100.202 49.6032V48.7518C100.214 48.218 99.775 48.0401 99.3193 48.0401C99.0518 48.0401 98.7844 48.0994 98.588 48.201L98.6424 48.4555C98.8138 48.3535 99.0392 48.3071 99.2694 48.3071C99.5451 48.3071 99.9046 48.4003 99.9046 48.7435V48.9935C99.7038 48.8791 99.4408 48.824 99.2109 48.824C98.793 48.824 98.4167 49.0652 98.4289 49.5311C98.4416 49.9423 98.7803 50.1624 99.152 50.1624C99.4572 50.1624 99.8003 50.0439 99.9463 49.7599ZM99.9005 49.4383C99.8334 49.7429 99.4739 49.8789 99.2109 49.8789C98.9852 49.8789 98.7635 49.7769 98.7508 49.5187C98.7386 49.2265 98.9974 49.0781 99.2649 49.0781C99.4698 49.0781 99.7165 49.1373 99.9005 49.2434V49.4383ZM100.795 48.4725C100.962 48.3746 101.242 48.3199 101.434 48.3199C101.668 48.3199 101.923 48.3705 101.923 48.6333C101.923 48.9127 101.651 48.9297 101.417 48.9338C101.33 48.9338 101.246 48.9297 101.167 48.9297V49.1925H101.434C101.71 49.1925 102.049 49.2264 102.049 49.5311C102.049 49.7981 101.773 49.8872 101.493 49.8913C101.221 49.8913 100.878 49.7898 100.724 49.6542L100.707 49.9465C100.903 50.082 101.225 50.1753 101.539 50.1753C101.961 50.1753 102.387 49.9974 102.387 49.5481C102.387 49.2729 102.212 49.0951 101.944 49.0358C102.141 48.9935 102.266 48.7983 102.266 48.5952C102.266 48.1757 101.865 48.0488 101.489 48.0488C101.238 48.0443 100.958 48.1081 100.778 48.2097L100.795 48.4725ZM104.475 48.6163C104.475 48.1247 103.99 48.0824 103.626 48.0824H102.89V50.133H103.718C104.115 50.133 104.592 50.0779 104.592 49.561C104.592 49.3027 104.433 49.1033 104.174 49.0399C104.383 48.9806 104.475 48.7983 104.475 48.6163ZM103.208 49.8573V49.1883H103.655C103.91 49.1883 104.27 49.2136 104.27 49.5357C104.27 49.8577 103.935 49.8573 103.689 49.8573H103.208ZM103.208 48.9338V48.3411H103.643C103.864 48.3411 104.153 48.3622 104.153 48.6416C104.153 48.921 103.864 48.9338 103.643 48.9338H103.208ZM106.583 48.6714L106.549 49.4466V50.1284H106.867V48.0824H106.758L105.387 49.5187L105.412 48.8111V48.087H105.095V50.1284H105.191L106.583 48.6714ZM108.305 50.1243V48.3792H109.016V48.087H107.277V48.3792H107.988V50.1243H108.305ZM110.914 48.6714L110.88 49.4466V50.1284H111.198V48.0824H111.089L109.718 49.5187L109.743 48.8111V48.087H109.426V50.1284H109.522L110.914 48.6714ZM114.684 49.1079C114.684 48.4045 114.166 48.0443 113.635 48.0443C113.146 48.0401 112.662 48.3365 112.582 48.9297H112.152V48.087H111.834V50.1284H112.152V49.2219H112.57C112.62 49.8573 113.125 50.1753 113.627 50.1711C114.158 50.1666 114.684 49.8151 114.684 49.1079ZM112.887 49.1079C112.887 48.591 113.259 48.3365 113.631 48.3411C113.995 48.3452 114.354 48.6034 114.354 49.1079C114.354 49.6124 113.995 49.8743 113.631 49.8743C113.259 49.8789 112.887 49.6202 112.887 49.1079ZM117.759 48.6714L117.725 49.4466V50.1284H118.043V48.0824H117.934L116.563 49.5187L116.589 48.8111V48.087H116.271V50.1284H116.367L117.759 48.6714ZM120.548 48.7096C120.422 48.2648 120.025 48.0401 119.616 48.036C119.089 48.0318 118.545 48.3875 118.545 49.0992C118.545 49.8109 119.08 50.1624 119.607 50.1624C120.029 50.1624 120.447 49.9253 120.569 49.4424H120.251C120.142 49.7305 119.879 49.8702 119.611 49.8702C119.248 49.8702 118.876 49.6032 118.876 49.0992C118.876 48.5952 119.26 48.3324 119.628 48.3324C119.883 48.3324 120.125 48.4555 120.234 48.7096H120.548ZM121.377 48.9508V48.0824H121.047V50.1284H121.377V49.2219H121.64C121.724 49.2219 121.812 49.2177 121.887 49.2008L122.497 50.1284H122.848V50.0907L122.175 49.0992C122.614 48.9297 122.756 48.54 122.748 48.0824H122.439C122.439 48.6374 122.188 48.9508 121.644 48.9508H121.377ZM125.127 48.1247V48.0911H124.797L124.128 49.7558H124.124L123.392 48.0911H123.041V48.1247L123.965 50.1454L123.848 50.4335C123.714 50.7809 123.556 51.0184 123.171 50.8447L123.125 51.0946C123.777 51.391 124.015 50.8235 124.241 50.2727L125.127 48.1247ZM127.365 48.7096C127.239 48.2648 126.842 48.0401 126.432 48.036C125.906 48.0318 125.363 48.3875 125.363 49.0992C125.363 49.8109 125.897 50.1624 126.424 50.1624C126.846 50.1624 127.264 49.9253 127.385 49.4424H127.068C126.959 49.7305 126.696 49.8702 126.428 49.8702C126.064 49.8702 125.693 49.6032 125.693 49.0992C125.693 48.5952 126.077 48.3324 126.445 48.3324C126.7 48.3324 126.942 48.4555 127.051 48.7096H127.365ZM129.732 48.7096C129.607 48.2648 129.21 48.0401 128.8 48.036C128.273 48.0318 127.73 48.3875 127.73 49.0992C127.73 49.8109 128.265 50.1624 128.792 50.1624C129.214 50.1624 129.632 49.9253 129.753 49.4424H129.435C129.326 49.7305 129.063 49.8702 128.796 49.8702C128.432 49.8702 128.06 49.6032 128.06 49.0992C128.06 48.5952 128.445 48.3324 128.812 48.3324C129.068 48.3324 129.31 48.4555 129.419 48.7096H129.732ZM131.034 50.1243V48.3792H131.744V48.087H130.005V48.3792H130.716V50.1243H131.034ZM133.738 48.6163C133.738 48.1247 133.253 48.0824 132.889 48.0824H132.154V50.133H132.981C133.378 50.133 133.855 50.0779 133.855 49.561C133.855 49.3027 133.696 49.1033 133.437 49.0399C133.646 48.9806 133.738 48.7983 133.738 48.6163ZM132.471 49.8573V49.1883H132.919C133.173 49.1883 133.533 49.2136 133.533 49.5357C133.533 49.8577 133.199 49.8573 132.952 49.8573H132.471ZM132.471 48.9338V48.3411H132.906C133.128 48.3411 133.416 48.3622 133.416 48.6416C133.416 48.921 133.128 48.9338 132.906 48.9338H132.471ZM135.261 48.0401C134.709 48.0401 134.249 48.4086 134.228 49.0528C134.207 49.7475 134.68 50.1753 135.349 50.1753C135.595 50.1753 135.85 50.116 136.088 50.0016L136.038 49.7516C135.804 49.849 135.587 49.9 135.357 49.9C134.901 49.9 134.533 49.6119 134.554 49.1415H136.155C136.268 48.4679 135.946 48.0443 135.261 48.0401ZM135.261 48.3029C135.62 48.3029 135.9 48.5019 135.879 48.8874H134.567C134.621 48.5189 134.893 48.3029 135.261 48.3029ZM138.135 48.087V48.9297H136.994V48.087H136.672V50.1284H136.994V49.2177H138.135V50.1284H138.453V48.087H138.135ZM140.552 48.087V48.9297H139.411V48.087H139.089V50.1284H139.411V49.2177H140.552V50.1284H140.87V48.087H140.552ZM143.499 49.1033C143.499 47.6845 141.376 47.6845 141.376 49.1033C141.376 50.5222 143.499 50.5143 143.499 49.1033ZM141.706 49.1033C141.706 48.0654 143.173 48.0654 143.173 49.1033C143.173 50.1413 141.706 50.1454 141.706 49.1033ZM144.33 50.1284V48.3916H145.375V48.087H144.004V50.1284H144.33ZM147.732 49.1033C147.732 47.6845 145.609 47.6845 145.609 49.1033C145.609 50.5222 147.732 50.5143 147.732 49.1033ZM145.939 49.1033C145.939 48.0654 147.406 48.0654 147.406 49.1033C147.406 50.1413 145.939 50.1454 145.939 49.1033ZM91.5775 53.2604L91.5439 54.036V54.7178H91.8617V52.6718H91.7529L90.382 54.1077L90.4073 53.4005V52.676H90.0895V54.7178H90.1856L91.5775 53.2604ZM93.9607 52.676V53.5191H92.8196V52.676H92.4977V54.7178H92.8196V53.8072H93.9607V54.7178H94.2785V52.676H93.9607ZM95.7169 54.7137V52.9682H96.4273V52.676H94.6887V52.9682H95.3991V54.7137H95.7169ZM97.6907 52.6296C97.139 52.6296 96.6793 52.9981 96.6584 53.6418C96.6375 54.3365 97.1099 54.7643 97.7786 54.7643C98.0253 54.7643 98.2801 54.705 98.5185 54.5906L98.4682 54.3406C98.2343 54.4385 98.0167 54.489 97.7868 54.489C97.3312 54.489 96.9635 54.201 96.9844 53.7309H98.5852C98.6981 53.0573 98.3762 52.6337 97.6907 52.6296ZM97.6907 52.8919C98.0502 52.8919 98.3304 53.0913 98.3095 53.4768H96.9971C97.051 53.1079 97.323 52.8919 97.6907 52.8919ZM100.582 52.9724V54.7178H100.904V52.676H99.4702L99.3156 54.0273C99.278 54.3494 99.2363 54.5272 98.8641 54.4679L98.8559 54.7178C99.4367 54.8024 99.579 54.6076 99.633 54.0443L99.7504 52.9724H100.582ZM103.019 52.9724V54.7178H103.341V52.676H101.907L101.752 54.0273C101.715 54.3494 101.673 54.5272 101.301 54.4679L101.293 54.7178C101.874 54.8024 102.016 54.6076 102.07 54.0443L102.187 52.9724H103.019ZM104.879 52.6296C104.327 52.6296 103.867 52.9981 103.846 53.6418C103.826 54.3365 104.298 54.7643 104.967 54.7643C105.213 54.7643 105.469 54.705 105.707 54.5906L105.656 54.3406C105.422 54.4385 105.205 54.489 104.975 54.489C104.52 54.489 104.152 54.201 104.172 53.7309H105.774C105.887 53.0573 105.565 52.6337 104.879 52.6296ZM104.879 52.8919C105.238 52.8919 105.518 53.0913 105.498 53.4768H104.185C104.24 53.1079 104.511 52.8919 104.879 52.8919ZM106.621 53.5402V52.6718H106.291V54.7178H106.621V53.8113H106.884C106.968 53.8113 107.055 53.8072 107.131 53.7902L107.741 54.7178H108.092V54.6797L107.419 53.6886C107.858 53.5191 108 53.1295 107.992 52.6718H107.682C107.682 53.2269 107.432 53.5402 106.888 53.5402H106.621ZM109.326 54.7137V52.9682H110.037V52.676H108.298V52.9682H109.008V54.7137H109.326ZM111.78 54.3494C111.78 54.722 111.939 54.7858 112.273 54.7307L112.269 54.5147C112.022 54.5483 112.035 54.4169 112.035 54.1927V53.3413C112.047 52.8074 111.608 52.6296 111.153 52.6296C110.885 52.6296 110.618 52.6888 110.421 52.7904L110.476 53.0445C110.647 52.9429 110.873 52.8961 111.103 52.8961C111.379 52.8961 111.738 52.9894 111.738 53.3326V53.5825C111.538 53.4681 111.274 53.413 111.044 53.413C110.626 53.413 110.25 53.6546 110.262 54.1205C110.275 54.5313 110.614 54.7518 110.986 54.7518C111.291 54.7518 111.634 54.6333 111.78 54.3494ZM111.734 54.0273C111.667 54.3324 111.307 54.4679 111.044 54.4679C110.819 54.4679 110.597 54.3663 110.584 54.1077C110.572 53.8155 110.831 53.6675 111.098 53.6675C111.303 53.6675 111.55 53.7268 111.734 53.8325V54.0273ZM95.2895 36.8157H92.0458L91.4437 38.1259H89.7051V37.9L93.294 30.1504H94.0633L97.6302 37.9V38.1259H95.9026L95.2895 36.8157ZM93.6731 32.7829L92.5918 35.3927H94.7541L93.6731 32.7829ZM101.043 31.7326L100.664 35.8557C100.568 36.8799 100.315 37.5465 99.9062 37.8553C99.4972 38.1641 98.7766 38.2432 97.7439 38.0924L97.777 36.8725C98.2306 36.9176 98.5353 36.865 98.6911 36.7141C98.8473 36.5637 98.9512 36.2586 99.0032 35.7993L99.5827 30.2188H104.833V38.1263H103.172V31.7326H101.043ZM108.326 38.1152H106.654V30.2076H109.987C110.849 30.2076 111.525 30.4899 112.016 31.0548C112.514 31.6198 112.763 32.2975 112.763 33.088C112.763 33.8785 112.514 34.5226 112.016 35.0648C111.518 35.607 110.842 35.8781 109.987 35.8781H108.326V38.1147V38.1152ZM108.293 34.4323H109.987C110.336 34.4323 110.619 34.3004 110.834 34.0368C111.057 33.7657 111.169 33.4341 111.169 33.0428C111.169 32.6515 111.061 32.3386 110.845 32.0828C110.63 31.8192 110.344 31.6874 109.987 31.6874H108.293V34.4323ZM118.863 33.6078L114.449 38.1491H113.947V30.2188H115.619V34.7033L120 30.1848H120.524V38.1263H118.863V33.6078ZM127.244 33.6078L122.83 38.1491H122.329V30.2188H124.001V34.7033L128.381 30.1848H128.905V38.1263H127.244V33.6078Z" fill="#585858"/>
</g>
<defs>
<clipPath id="clip0_55_377">
<rect width="128.67" height="80" fill="white" transform="translate(19.062)"/>
</clipPath>
</defs>
</svg>
