<svg width="167" height="80" viewBox="0 0 167 80" fill="none" xmlns="http://www.w3.org/2000/svg">
<g clip-path="url(#clip0_55_361)">
<path d="M0 44.4985C0 43.9789 0 43.7186 0.0972374 43.5203C0.182922 43.3461 0.319632 43.2039 0.48715 43.1148C0.677774 43.0137 0.928088 43.0137 1.42775 43.0137H5.71101C6.21068 43.0137 6.46099 43.0137 6.65162 43.1148C6.81914 43.2039 6.95585 43.3461 7.04153 43.5203C7.13877 43.7186 7.13877 43.9789 7.13877 44.4985V48.9531C7.13877 49.4727 7.13877 49.7331 7.04153 49.9313C6.95585 50.1055 6.81914 50.2477 6.65162 50.3368C6.46099 50.438 6.21068 50.438 5.71101 50.438H1.42775C0.928088 50.438 0.677774 50.438 0.48715 50.3368C0.319632 50.2477 0.182922 50.1055 0.0972374 49.9313C0 49.7331 0 49.4727 0 48.9531L0 44.4985Z" fill="#585858"/>
<path d="M7.58447 44.4985C7.58447 43.9789 7.58447 43.7186 7.68171 43.5203C7.76739 43.3461 7.9041 43.2039 8.07162 43.1148C8.26225 43.0137 8.51256 43.0137 9.01223 43.0137H13.2955C13.7952 43.0137 14.0455 43.0137 14.2361 43.1148C14.4036 43.2039 14.5403 43.3461 14.626 43.5203C14.7232 43.7186 14.7232 43.9789 14.7232 44.4985V48.9531C14.7232 49.4727 14.7232 49.7331 14.626 49.9313C14.5403 50.1055 14.4036 50.2477 14.2361 50.3368C14.0455 50.438 13.7952 50.438 13.2955 50.438H9.01223C8.51256 50.438 8.26225 50.438 8.07162 50.3368C7.9041 50.2477 7.76739 50.1055 7.68171 49.9313C7.58447 49.7331 7.58447 49.4727 7.58447 48.9531V44.4985Z" fill="#585858"/>
<path d="M7.58447 36.6108C7.58447 36.0912 7.58447 35.8309 7.68171 35.6326C7.76739 35.4584 7.9041 35.3162 8.07162 35.2271C8.26225 35.126 8.51256 35.126 9.01223 35.126H13.2955C13.7952 35.126 14.0455 35.126 14.2361 35.2271C14.4036 35.3162 14.5403 35.4584 14.626 35.6326C14.7232 35.8309 14.7232 36.0912 14.7232 36.6108V41.0654C14.7232 41.585 14.7232 41.8454 14.626 42.0436C14.5403 42.2178 14.4036 42.36 14.2361 42.4491C14.0455 42.5503 13.7952 42.5503 13.2955 42.5503H9.01223C8.51256 42.5503 8.26225 42.5503 8.07162 42.4491C7.9041 42.36 7.76739 42.2178 7.68171 42.0436C7.58447 41.8454 7.58447 41.585 7.58447 41.0654V36.6108Z" fill="#585858"/>
<path d="M15.1689 44.4985C15.1689 43.9789 15.1689 43.7186 15.2662 43.5203C15.3519 43.3461 15.4886 43.2039 15.6561 43.1148C15.8467 43.0137 16.097 43.0137 16.5967 43.0137H20.88C21.3796 43.0137 21.6299 43.0137 21.8206 43.1148C21.9881 43.2039 22.1248 43.3461 22.2105 43.5203C22.3077 43.7186 22.3077 43.9789 22.3077 44.4985V48.9531C22.3077 49.4727 22.3077 49.7331 22.2105 49.9313C22.1248 50.1055 21.9881 50.2477 21.8206 50.3368C21.6299 50.438 21.3796 50.438 20.88 50.438H16.5967C16.097 50.438 15.8467 50.438 15.6561 50.3368C15.4886 50.2477 15.3519 50.1055 15.2662 49.9313C15.1689 49.7331 15.1689 49.4727 15.1689 48.9531V44.4985Z" fill="#585858"/>
<path d="M15.1689 36.6108C15.1689 36.0912 15.1689 35.8309 15.2662 35.6326C15.3519 35.4584 15.4886 35.3162 15.6561 35.2271C15.8467 35.126 16.097 35.126 16.5967 35.126H20.88C21.3796 35.126 21.6299 35.126 21.8206 35.2271C21.9881 35.3162 22.1248 35.4584 22.2105 35.6326C22.3077 35.8309 22.3077 36.0912 22.3077 36.6108V41.0654C22.3077 41.585 22.3077 41.8454 22.2105 42.0436C22.1248 42.2178 21.9881 42.36 21.8206 42.4491C21.6299 42.5503 21.3796 42.5503 20.88 42.5503H16.5967C16.097 42.5503 15.8467 42.5503 15.6561 42.4491C15.4886 42.36 15.3519 42.2178 15.2662 42.0436C15.1689 41.8454 15.1689 41.585 15.1689 41.0654V36.6108Z" fill="#8F8F8F"/>
<path d="M15.1689 28.7229C15.1689 28.2032 15.1689 27.9429 15.2662 27.7447C15.3519 27.5705 15.4886 27.4283 15.6561 27.3392C15.8467 27.238 16.097 27.238 16.5967 27.238H20.88C21.3796 27.238 21.6299 27.238 21.8206 27.3392C21.9881 27.4283 22.1248 27.5705 22.2105 27.7447C22.3077 27.9429 22.3077 28.2032 22.3077 28.7229V33.1775C22.3077 33.6971 22.3077 33.9574 22.2105 34.1557C22.1248 34.3299 21.9881 34.4721 21.8206 34.5612C21.6299 34.6623 21.3796 34.6623 20.88 34.6623H16.5967C16.097 34.6623 15.8467 34.6623 15.6561 34.5612C15.4886 34.4721 15.3519 34.3299 15.2662 34.1557C15.1689 33.9574 15.1689 33.6971 15.1689 33.1775V28.7229Z" fill="#8F8F8F"/>
<path d="M22.7534 44.4985C22.7534 43.9789 22.7534 43.7186 22.8507 43.5203C22.9363 43.3461 23.073 43.2039 23.2406 43.1148C23.4312 43.0137 23.6815 43.0137 24.1812 43.0137H28.4644C28.9641 43.0137 29.2144 43.0137 29.405 43.1148C29.5726 43.2039 29.7093 43.3461 29.795 43.5203C29.8922 43.7186 29.8922 43.9789 29.8922 44.4985V48.9531C29.8922 49.4727 29.8922 49.7331 29.795 49.9313C29.7093 50.1055 29.5726 50.2477 29.405 50.3368C29.2144 50.438 28.9641 50.438 28.4644 50.438H24.1812C23.6815 50.438 23.4312 50.438 23.2406 50.3368C23.073 50.2477 22.9363 50.1055 22.8507 49.9313C22.7534 49.7331 22.7534 49.4727 22.7534 48.9531V44.4985Z" fill="#8F8F8F"/>
<path d="M22.7534 36.6108C22.7534 36.0912 22.7534 35.8309 22.8507 35.6326C22.9363 35.4584 23.073 35.3162 23.2406 35.2271C23.4312 35.126 23.6815 35.126 24.1812 35.126H28.4644C28.9641 35.126 29.2144 35.126 29.405 35.2271C29.5726 35.3162 29.7093 35.4584 29.795 35.6326C29.8922 35.8309 29.8922 36.0912 29.8922 36.6108V41.0654C29.8922 41.585 29.8922 41.8454 29.795 42.0436C29.7093 42.2178 29.5726 42.36 29.405 42.4491C29.2144 42.5503 28.9641 42.5503 28.4644 42.5503H24.1812C23.6815 42.5503 23.4312 42.5503 23.2406 42.4491C23.073 42.36 22.9363 42.2178 22.8507 42.0436C22.7534 41.8454 22.7534 41.585 22.7534 41.0654V36.6108Z" fill="#8F8F8F"/>
<path d="M22.7534 28.7229C22.7534 28.2032 22.7534 27.9429 22.8507 27.7447C22.9363 27.5705 23.073 27.4283 23.2406 27.3392C23.4312 27.238 23.6815 27.238 24.1812 27.238H28.4644C28.9641 27.238 29.2144 27.238 29.405 27.3392C29.5726 27.4283 29.7093 27.5705 29.795 27.7447C29.8922 27.9429 29.8922 28.2032 29.8922 28.7229V33.1775C29.8922 33.6971 29.8922 33.9574 29.795 34.1557C29.7093 34.3299 29.5726 34.4721 29.405 34.5612C29.2144 34.6623 28.9641 34.6623 28.4644 34.6623H24.1812C23.6815 34.6623 23.4312 34.6623 23.2406 34.5612C23.073 34.4721 22.9363 34.3299 22.8507 34.1557C22.7534 33.9574 22.7534 33.6971 22.7534 33.1775V28.7229Z" fill="#C7C7C7"/>
<path d="M30.3379 44.4985C30.3379 43.9789 30.3379 43.7186 30.4351 43.5203C30.5208 43.3461 30.6575 43.2039 30.825 43.1148C31.0157 43.0137 31.266 43.0137 31.7656 43.0137H36.0489C36.5486 43.0137 36.7989 43.0137 36.9895 43.1148C37.157 43.2039 37.2937 43.3461 37.3794 43.5203C37.4767 43.7186 37.4767 43.9789 37.4767 44.4985V48.9531C37.4767 49.4727 37.4767 49.7331 37.3794 49.9313C37.2937 50.1055 37.157 50.2477 36.9895 50.3368C36.7989 50.438 36.5486 50.438 36.0489 50.438H31.7656C31.266 50.438 31.0157 50.438 30.825 50.3368C30.6575 50.2477 30.5208 50.1055 30.4351 49.9313C30.3379 49.7331 30.3379 49.4727 30.3379 48.9531V44.4985Z" fill="#C7C7C7"/>
<path d="M30.3379 36.6108C30.3379 36.0912 30.3379 35.8309 30.4351 35.6326C30.5208 35.4584 30.6575 35.3162 30.825 35.2271C31.0157 35.126 31.266 35.126 31.7656 35.126H36.0489C36.5486 35.126 36.7989 35.126 36.9895 35.2271C37.157 35.3162 37.2937 35.4584 37.3794 35.6326C37.4767 35.8309 37.4767 36.0912 37.4767 36.6108V41.0654C37.4767 41.585 37.4767 41.8454 37.3794 42.0436C37.2937 42.2178 37.157 42.36 36.9895 42.4491C36.7989 42.5503 36.5486 42.5503 36.0489 42.5503H31.7656C31.266 42.5503 31.0157 42.5503 30.825 42.4491C30.6575 42.36 30.5208 42.2178 30.4351 42.0436C30.3379 41.8454 30.3379 41.585 30.3379 41.0654V36.6108Z" fill="#C7C7C7"/>
<path d="M30.3379 28.7229C30.3379 28.2032 30.3379 27.9429 30.4351 27.7447C30.5208 27.5705 30.6575 27.4283 30.825 27.3392C31.0157 27.238 31.266 27.238 31.7656 27.238H36.0489C36.5486 27.238 36.7989 27.238 36.9895 27.3392C37.157 27.4283 37.2937 27.5705 37.3794 27.7447C37.4767 27.9429 37.4767 28.2032 37.4767 28.7229V33.1775C37.4767 33.6971 37.4767 33.9574 37.3794 34.1557C37.2937 34.3299 37.157 34.4721 36.9895 34.5612C36.7989 34.6623 36.5486 34.6623 36.0489 34.6623H31.7656C31.266 34.6623 31.0157 34.6623 30.825 34.5612C30.6575 34.4721 30.5208 34.3299 30.4351 34.1557C30.3379 33.9574 30.3379 33.6971 30.3379 33.1775V28.7229Z" fill="#C7C7C7"/>
<path d="M75.4006 27.2V36.4365H73.5704V28.6908H70.0025V36.4365H68.1723V27.2H75.4006ZM66.5684 27.2V36.4365H64.7382V28.6908H61.1703V36.4365H59.3401V27.2H66.5684ZM54.741 33.1444H52.4776V31.6595H54.741C55.0905 31.6595 55.3755 31.6005 55.595 31.4823C55.8145 31.3602 55.9753 31.1909 56.0773 30.9747C56.1794 30.7594 56.2294 30.5161 56.2294 30.2448C56.2294 29.9734 56.1784 29.7141 56.0773 29.4768C55.9753 29.2395 55.8155 29.0493 55.595 28.9061C55.3755 28.7619 55.0905 28.6908 54.741 28.6908H53.1121V36.4365H51.2819V27.2H54.7401C55.4352 27.2 56.0311 27.3311 56.5269 27.5934C57.0276 27.8518 57.4098 28.2092 57.6736 28.6658C57.9383 29.1224 58.0702 29.645 58.0702 30.2327C58.0702 30.8205 57.9383 31.3451 57.6736 31.7807C57.4088 32.2162 57.0266 32.5526 56.5269 32.7889C56.0311 33.0262 55.4352 33.1444 54.7401 33.1444H54.741ZM48.3975 32.9982V34.4891H43.707V32.9982H48.3975ZM48.5073 36.4365L46.0859 28.7799L45.8905 27.2H47.1411L50.4597 36.4365H48.5082H48.5073ZM46.5009 28.7799L44.0854 36.4365H42.1396L45.438 27.2H46.6761L46.499 28.7799H46.5009Z" fill="#585858"/>
<path d="M167 43.2971V44.7118H161.022V43.2971H167ZM164.877 43.2971V50.1607H163.114V43.2971H164.877ZM155.697 52.8V40.4175H157.46V52.8H155.697ZM154.196 46.7734V46.9066C154.196 47.1899 154.215 47.4503 154.251 47.6866C154.292 47.9189 154.355 48.1241 154.44 48.3023C154.529 48.4756 154.645 48.6107 154.787 48.7078C154.93 48.805 155.104 48.854 155.312 48.854C155.605 48.854 155.841 48.803 156.02 48.7018C156.203 48.6007 156.339 48.4565 156.428 48.2703C156.517 48.0841 156.566 47.8618 156.574 47.6045V46.0185C156.566 45.7311 156.517 45.4818 156.428 45.2695C156.342 45.0543 156.21 44.8891 156.031 44.7749C155.852 44.6568 155.616 44.5977 155.324 44.5977C155.117 44.5977 154.939 44.6548 154.793 44.7689C154.651 44.8831 154.535 45.0393 154.446 45.2385C154.36 45.4378 154.297 45.67 154.257 45.9364C154.216 46.1987 154.196 46.4781 154.196 46.7734ZM152.439 46.9066V46.7734C152.439 46.3549 152.474 45.9614 152.543 45.594C152.613 45.2265 152.712 44.8941 152.842 44.5977C152.975 44.2973 153.14 44.042 153.336 43.8297C153.531 43.6185 153.756 43.4553 154.012 43.3411C154.272 43.227 154.561 43.1699 154.879 43.1699C155.241 43.1699 155.554 43.248 155.818 43.4042C156.083 43.5604 156.305 43.7807 156.484 44.064C156.663 44.3474 156.807 44.6798 156.917 45.0603C157.027 45.4368 157.11 45.8453 157.167 46.2848V47.3311C157.11 47.7537 157.027 48.1451 156.917 48.5046C156.807 48.86 156.661 49.1724 156.478 49.4438C156.299 49.7101 156.077 49.9174 155.813 50.0655C155.548 50.2137 155.233 50.2878 154.867 50.2878C154.477 50.2878 154.129 50.2057 153.825 50.0405C153.523 49.8753 153.269 49.643 153.062 49.3426C152.859 49.0383 152.704 48.6808 152.598 48.2703C152.492 47.8558 152.439 47.4012 152.439 46.9066ZM158.978 46.9066V46.7734C158.978 46.5361 158.964 46.3098 158.936 46.0946C158.912 45.8743 158.87 45.6741 158.814 45.4918C158.761 45.3096 158.689 45.1534 158.6 45.0222C158.51 44.8871 158.402 44.7829 158.276 44.7118C158.15 44.6358 158.006 44.5977 157.843 44.5977C157.558 44.5977 157.324 44.6568 157.141 44.7749C156.962 44.8891 156.828 45.0543 156.739 45.2695C156.653 45.4808 156.605 45.7301 156.593 46.0185V47.6555C156.609 47.9008 156.66 48.1141 156.745 48.2963C156.834 48.4736 156.968 48.6137 157.147 48.7149C157.33 48.812 157.566 48.861 157.855 48.861C158.062 48.861 158.237 48.812 158.379 48.7149C158.526 48.6177 158.641 48.4806 158.727 48.3023C158.816 48.1251 158.879 47.9199 158.916 47.6866C158.956 47.4493 158.976 47.1899 158.976 46.9066H158.978ZM160.741 46.7734V46.9066C160.741 47.4012 160.688 47.8558 160.582 48.2703C160.48 48.6808 160.326 49.0383 160.118 49.3426C159.911 49.643 159.657 49.8753 159.356 50.0405C159.054 50.2057 158.707 50.2878 158.313 50.2878C157.947 50.2878 157.629 50.2157 157.362 50.0726C157.097 49.9244 156.874 49.7191 156.691 49.4568C156.512 49.1904 156.365 48.8821 156.252 48.5306C156.142 48.1752 156.06 47.7927 156.008 47.3822V46.2848C156.061 45.8453 156.142 45.4368 156.252 45.0603C156.361 44.6798 156.506 44.3474 156.685 44.064C156.868 43.7807 157.091 43.5604 157.356 43.4042C157.621 43.248 157.936 43.1699 158.301 43.1699C158.618 43.1699 158.905 43.227 159.161 43.3411C159.421 43.4553 159.649 43.6185 159.845 43.8297C160.044 44.041 160.209 44.2973 160.339 44.5977C160.472 44.8941 160.573 45.2255 160.637 45.594C160.706 45.9614 160.741 46.3549 160.741 46.7734ZM147.133 46.6653V46.7985C147.133 47.0858 147.157 47.3542 147.206 47.6045C147.255 47.8538 147.332 48.0741 147.438 48.2643C147.547 48.4505 147.69 48.5967 147.865 48.7018C148.04 48.808 148.253 48.86 148.505 48.86C148.758 48.86 148.959 48.807 149.134 48.7018C149.309 48.5957 149.449 48.4505 149.555 48.2643C149.661 48.0741 149.738 47.8538 149.787 47.6045C149.84 47.3552 149.866 47.0868 149.866 46.7985V46.6653C149.866 46.3859 149.84 46.1236 149.787 45.8783C149.738 45.629 149.659 45.4087 149.549 45.2185C149.443 45.0242 149.303 44.872 149.128 44.7619C148.953 44.6518 148.742 44.5967 148.494 44.5967C148.245 44.5967 148.035 44.6518 147.859 44.7619C147.689 44.872 147.548 45.0242 147.439 45.2185C147.333 45.4087 147.256 45.629 147.207 45.8783C147.158 46.1236 147.134 46.3859 147.134 46.6653H147.133ZM145.376 46.7985V46.6653C145.376 46.1617 145.445 45.6991 145.583 45.2756C145.721 44.848 145.922 44.4786 146.186 44.1652C146.451 43.8518 146.775 43.6095 147.162 43.4353C147.548 43.258 147.992 43.1689 148.492 43.1689C148.992 43.1689 149.437 43.258 149.828 43.4353C150.218 43.6085 150.546 43.8518 150.81 44.1652C151.079 44.4786 151.282 44.848 151.421 45.2756C151.559 45.6981 151.628 46.1617 151.628 46.6653V46.7985C151.628 47.2971 151.558 47.7607 151.421 48.1882C151.282 48.6107 151.079 48.9812 150.81 49.2986C150.545 49.612 150.221 49.8543 149.834 50.0285C149.448 50.2017 149.004 50.2888 148.504 50.2888C148.005 50.2888 147.559 50.2017 147.168 50.0285C146.782 49.8553 146.455 49.612 146.186 49.2986C145.921 48.9812 145.72 48.6117 145.583 48.1882C145.444 47.7607 145.376 47.2981 145.376 46.7985ZM141.868 48.86C142.084 48.86 142.275 48.818 142.442 48.7329C142.609 48.6438 142.739 48.5216 142.833 48.3654C142.93 48.2042 142.981 48.017 142.985 47.8007H144.638C144.634 48.2833 144.51 48.7119 144.266 49.0883C144.023 49.4608 143.696 49.7542 143.284 49.9704C142.873 50.1817 142.414 50.2878 141.906 50.2878C141.397 50.2878 140.946 50.1987 140.564 50.0215C140.185 49.8443 139.871 49.599 139.618 49.2856C139.366 48.9682 139.177 48.6007 139.051 48.1822C138.925 47.7597 138.863 47.3071 138.863 46.8245V46.6403C138.863 46.1537 138.925 45.7011 139.051 45.2826C139.177 44.86 139.366 44.4916 139.618 44.1792C139.871 43.8618 140.185 43.6145 140.564 43.4373C140.942 43.26 141.385 43.1709 141.893 43.1709C142.434 43.1709 142.908 43.2791 143.314 43.4943C143.725 43.7096 144.046 44.019 144.278 44.4205C144.514 44.818 144.634 45.2896 144.638 45.8353H142.985C142.981 45.607 142.934 45.3997 142.844 45.2135C142.759 45.0272 142.633 44.8791 142.466 44.7689C142.303 44.6548 142.102 44.5977 141.862 44.5977C141.606 44.5977 141.397 44.6548 141.234 44.7689C141.071 44.8791 140.945 45.0312 140.855 45.2255C140.766 45.4157 140.703 45.634 140.667 45.8793C140.634 46.1206 140.618 46.3739 140.618 46.6403V46.8245C140.618 47.0908 140.634 47.3471 140.667 47.5925C140.699 47.8378 140.76 48.056 140.85 48.2463C140.943 48.4365 141.071 48.5867 141.234 48.6968C141.397 48.807 141.608 48.862 141.868 48.862V48.86ZM132.718 40.5366H133.969C133.969 40.9001 133.881 41.2235 133.707 41.5068C133.537 41.7862 133.292 42.0055 132.975 42.1667C132.659 42.3229 132.284 42.401 131.853 42.401C131.198 42.401 130.679 42.2277 130.297 41.8803C129.919 41.5339 129.73 41.0853 129.73 40.5356H130.974C130.974 40.7559 131.039 40.9521 131.169 41.1254C131.303 41.2986 131.531 41.3857 131.853 41.3857C132.174 41.3857 132.394 41.2986 132.524 41.1254C132.654 40.9521 132.719 40.7549 132.719 40.5356L132.718 40.5366ZM130.705 47.6095L132.92 43.2961H134.677V50.1597H132.92V45.8393L130.705 50.1597H128.948V43.2961H130.705V47.6095ZM127.412 43.2961V50.1597H125.655V43.2961H127.412ZM119.823 45.3326H121.738C122.34 45.3326 122.852 45.4358 123.276 45.643C123.703 45.8463 124.028 46.1296 124.252 46.4931C124.48 46.8565 124.594 47.2781 124.594 47.7557C124.594 48.1021 124.528 48.4235 124.398 48.7199C124.272 49.0112 124.087 49.2655 123.843 49.4808C123.599 49.6961 123.3 49.8633 122.946 49.9824C122.593 50.1006 122.19 50.1597 121.739 50.1597H118.726V43.2961H120.489V48.7389H121.739C122.004 48.7389 122.215 48.6948 122.374 48.6057C122.536 48.5126 122.654 48.3925 122.727 48.2443C122.804 48.0961 122.842 47.9359 122.842 47.7617C122.842 47.5874 122.804 47.4152 122.727 47.267C122.654 47.1149 122.535 46.9917 122.374 46.8996C122.215 46.8065 122.004 46.7604 121.739 46.7604H119.824V45.3326H119.823ZM117.243 43.2961V50.1597H115.48V43.2961H117.243ZM113.284 43.2961V50.1597H111.527V43.2961H113.284ZM116.053 46.0685V47.4893H112.698V46.0685H116.053ZM110.167 43.2961V50.1597H108.404V43.2961H110.167ZM106.208 43.2961V50.1597H104.451V43.2961H106.208ZM108.977 46.0685V47.4893H105.622V46.0685H108.977ZM100.748 50.2868C100.236 50.2868 99.777 50.2027 99.3697 50.0335C98.9634 49.8603 98.6178 49.621 98.3328 49.3166C98.0527 49.0122 97.837 48.6588 97.6859 48.2573C97.5357 47.8518 97.4606 47.4202 97.4606 46.9637V46.7103C97.4606 46.1897 97.5318 45.7141 97.6743 45.2826C97.8168 44.851 98.0199 44.4766 98.2847 44.1602C98.5533 43.8428 98.8787 43.5995 99.2609 43.4302C99.6431 43.257 100.074 43.1699 100.554 43.1699C101.033 43.1699 101.437 43.25 101.798 43.4112C102.16 43.5724 102.463 43.8007 102.707 44.0961C102.955 44.3925 103.142 44.7469 103.268 45.1614C103.394 45.5719 103.457 46.0285 103.457 46.5321V47.2931H98.2106V46.0756H101.73V45.9364C101.73 45.6831 101.686 45.4568 101.597 45.2575C101.511 45.0543 101.381 44.8941 101.207 44.7749C101.031 44.6568 100.808 44.5977 100.536 44.5977C100.304 44.5977 100.104 44.6508 99.9377 44.7559C99.7712 44.862 99.6345 45.0092 99.5295 45.1995C99.4275 45.3897 99.3505 45.614 99.2975 45.8723C99.2484 46.1256 99.2243 46.405 99.2243 46.7093V46.9627C99.2243 47.238 99.2609 47.4913 99.3341 47.7236C99.4111 47.9559 99.5189 48.1572 99.6576 48.3264C99.8001 48.4956 99.9705 48.6267 100.17 48.7199C100.373 48.813 100.603 48.859 100.859 48.859C101.176 48.859 101.471 48.796 101.744 48.6688C102.02 48.5376 102.258 48.3414 102.457 48.0791L103.311 49.0433C103.173 49.2505 102.984 49.4488 102.744 49.64C102.508 49.8302 102.223 49.9864 101.89 50.1096C101.557 50.2277 101.177 50.2868 100.749 50.2868H100.748ZM93.935 50.1597H91.4338L92.0374 48.7449H93.934C94.1497 48.7449 94.3268 48.7179 94.4645 48.6628C94.6032 48.6077 94.7042 48.5276 94.7697 48.4215C94.839 48.3113 94.8737 48.1802 94.8737 48.028C94.8737 47.8758 94.8429 47.7506 94.7822 47.6415C94.7216 47.5314 94.6214 47.4473 94.4838 47.3882C94.35 47.3251 94.167 47.2931 93.935 47.2931H92.2945L92.307 46.0946H94.1738L94.6012 46.5772C95.0653 46.6072 95.4475 46.6973 95.7479 46.8495C96.0492 47.0017 96.2706 47.196 96.4131 47.4333C96.5595 47.6655 96.6326 47.9219 96.6326 48.2012C96.6326 48.5266 96.5739 48.812 96.4555 49.0573C96.3371 49.3026 96.1628 49.5078 95.9308 49.6731C95.7026 49.8343 95.4224 49.9564 95.0893 50.0405C94.7562 50.1206 94.3711 50.1607 93.9369 50.1607L93.935 50.1597ZM93.935 47.2921H91.867L91.8545 46.0936H93.5624C93.7906 46.0936 93.9754 46.0705 94.1179 46.0235C94.2604 45.9724 94.3644 45.8983 94.4289 45.8012C94.4982 45.7001 94.5329 45.5769 94.5329 45.4338C94.5329 45.3066 94.5107 45.1995 94.4655 45.1103C94.425 45.0172 94.3615 44.9411 94.2768 44.8821C94.1911 44.823 94.0833 44.7809 93.9533 44.7549C93.8272 44.7249 93.6789 44.7108 93.5075 44.7108H92.5198V50.1597H90.7628V43.2961H93.5075C93.9389 43.2961 94.3249 43.3361 94.6667 43.4162C95.0085 43.4923 95.2992 43.6085 95.5389 43.7647C95.7825 43.9209 95.9683 44.1201 96.0944 44.3614C96.2244 44.5987 96.2899 44.8791 96.2899 45.2055C96.2899 45.4167 96.2427 45.616 96.1493 45.8022C96.0598 45.9884 95.926 46.1537 95.7469 46.2968C95.5678 46.441 95.3464 46.5592 95.0816 46.6523C94.8217 46.7414 94.5204 46.7965 94.1786 46.8175L93.935 47.2931V47.2921ZM89.7509 43.2951V44.7098H83.7732V43.2951H89.7509ZM87.628 43.2951V50.1587H85.8653V43.2951H87.628ZM80.4787 48.858C80.6943 48.858 80.885 48.816 81.0525 48.7309C81.219 48.6418 81.349 48.5196 81.4424 48.3634C81.5396 48.2022 81.5907 48.015 81.5945 47.7987H83.2476C83.2437 48.2813 83.1195 48.7098 82.8759 49.0863C82.6324 49.4588 82.305 49.7522 81.8939 49.9684C81.4828 50.1797 81.0236 50.2858 80.5153 50.2858C80.0069 50.2858 79.5554 50.1967 79.1732 50.0195C78.7948 49.8423 78.48 49.597 78.2278 49.2836C77.9755 48.9662 77.7868 48.5987 77.6607 48.1802C77.5346 47.7577 77.472 47.3051 77.472 46.8225V46.6383C77.472 46.1516 77.5346 45.6991 77.6607 45.2806C77.7868 44.858 77.9755 44.4896 78.2278 44.1772C78.48 43.8598 78.7948 43.6125 79.1732 43.4353C79.5516 43.258 79.9944 43.1689 80.5028 43.1689C81.0438 43.1689 81.5175 43.2771 81.9238 43.4923C82.3349 43.7076 82.6555 44.017 82.8875 44.4185C83.1234 44.816 83.2437 45.2876 83.2476 45.8333H81.5945C81.5907 45.605 81.5435 45.3977 81.454 45.2115C81.3683 45.0252 81.2421 44.8771 81.0756 44.7669C80.9129 44.6528 80.7117 44.5957 80.472 44.5957C80.2159 44.5957 80.006 44.6528 79.8433 44.7669C79.6806 44.8771 79.5545 45.0292 79.4649 45.2235C79.3754 45.4137 79.3128 45.632 79.2762 45.8773C79.2435 46.1186 79.2271 46.3719 79.2271 46.6383V46.8225C79.2271 47.0888 79.2435 47.3451 79.2762 47.5904C79.309 47.8358 79.3696 48.054 79.4591 48.2443C79.5525 48.4345 79.6806 48.5847 79.8433 48.6948C80.006 48.805 80.2178 48.86 80.4777 48.86L80.4787 48.858ZM74.0437 50.2858C73.5315 50.2858 73.0713 50.2017 72.665 50.0325C72.2588 49.8593 71.9131 49.62 71.6282 49.3156C71.348 49.0112 71.1323 48.6578 70.9812 48.2563C70.831 47.8508 70.7559 47.4192 70.7559 46.9627V46.7093C70.7559 46.1887 70.8271 45.7131 70.9696 45.2816C71.1121 44.85 71.3153 44.4756 71.58 44.1592C71.8486 43.8418 72.174 43.5985 72.5562 43.4292C72.9385 43.256 73.3698 43.1689 73.8492 43.1689C74.3287 43.1689 74.7321 43.249 75.0931 43.4102C75.4551 43.5714 75.7583 43.7997 76.0019 44.0951C76.2503 44.3914 76.4371 44.7459 76.5632 45.1604C76.6893 45.5709 76.7519 46.0275 76.7519 46.5311V47.2921H71.5059V46.0746H75.0257V45.9354C75.0257 45.6821 74.9814 45.4558 74.8919 45.2565C74.8062 45.0533 74.6762 44.8931 74.502 44.7739C74.3267 44.6558 74.1034 44.5967 73.8309 44.5967C73.5989 44.5967 73.3996 44.6498 73.2331 44.7549C73.0665 44.861 72.9298 45.0082 72.8249 45.1985C72.7228 45.3887 72.6458 45.613 72.5928 45.8713C72.5437 46.1246 72.5197 46.404 72.5197 46.7083V46.9617C72.5197 47.237 72.5562 47.4903 72.6294 47.7226C72.7064 47.9549 72.8143 48.1562 72.9529 48.3254C73.0954 48.4946 73.2658 48.6257 73.4651 48.7189C73.6682 48.812 73.8983 48.858 74.1544 48.858C74.4711 48.858 74.7667 48.795 75.0392 48.6678C75.3155 48.5366 75.5533 48.3404 75.7526 48.0781L76.6065 49.0423C76.4679 49.2495 76.2792 49.4478 76.0395 49.639C75.8036 49.8292 75.5186 49.9854 75.1855 50.1086C74.8524 50.2267 74.4721 50.2858 74.0446 50.2858H74.0437ZM68.8227 46.2318V47.6595C68.6889 47.7316 68.5156 47.7987 68.3038 47.8628C68.092 47.9259 67.8686 47.9769 67.6328 48.015C67.4007 48.049 67.1851 48.066 66.9858 48.066C66.3513 48.066 65.8064 47.9749 65.351 47.7937C64.8995 47.6115 64.552 47.3261 64.3084 46.9376C64.0648 46.5481 63.9425 46.0495 63.9425 45.4408V43.2901H65.6996V45.4408C65.6996 45.7491 65.7438 45.9925 65.8334 46.1707C65.9229 46.3439 66.0616 46.467 66.2483 46.5381C66.4399 46.6062 66.6854 46.6393 66.9868 46.6393C67.1986 46.6393 67.4036 46.6222 67.6029 46.5882C67.8022 46.5542 68.0015 46.5081 68.2008 46.449C68.4001 46.3899 68.6071 46.3179 68.8227 46.2338V46.2318ZM69.6526 43.2951V50.1587H67.8898V43.2951H69.6526ZM60.3813 50.2858C59.8692 50.2858 59.4099 50.2017 59.0027 50.0325C58.5964 49.8593 58.2508 49.62 57.9658 49.3156C57.6857 49.0112 57.47 48.6578 57.3188 48.2563C57.1687 47.8508 57.0936 47.4192 57.0936 46.9627V46.7093C57.0936 46.1887 57.1648 45.7131 57.3073 45.2816C57.4498 44.85 57.6529 44.4756 57.9177 44.1592C58.1863 43.8418 58.5117 43.5985 58.8939 43.4292C59.2761 43.256 59.7074 43.1689 60.1869 43.1689C60.6663 43.1689 61.0697 43.249 61.4307 43.4102C61.7927 43.5714 62.096 43.7997 62.3396 44.0951C62.588 44.3914 62.7747 44.7459 62.9009 45.1604C63.027 45.5709 63.0896 46.0275 63.0896 46.5311V47.2921H57.8435V46.0746H61.3633V45.9354C61.3633 45.6821 61.3191 45.4558 61.2295 45.2565C61.1438 45.0533 61.0139 44.8931 60.8396 44.7739C60.6644 44.6558 60.441 44.5967 60.1686 44.5967C59.9366 44.5967 59.7373 44.6498 59.5707 44.7549C59.4042 44.861 59.2675 45.0082 59.1625 45.1985C59.0605 45.3887 58.9834 45.613 58.9305 45.8713C58.8814 46.1246 58.8573 46.404 58.8573 46.7083V46.9617C58.8573 47.237 58.8939 47.4903 58.9671 47.7226C59.0441 47.9549 59.1519 48.1562 59.2906 48.3254C59.433 48.4946 59.6034 48.6257 59.8027 48.7189C60.0059 48.812 60.236 48.858 60.4921 48.858C60.8088 48.858 61.1044 48.795 61.3768 48.6678C61.6531 48.5366 61.8909 48.3404 62.0902 48.0781L62.9442 49.0423C62.8055 49.2495 62.6168 49.4478 62.3771 49.639C62.1412 49.8292 61.8563 49.9854 61.5232 50.1086C61.1901 50.2267 60.8098 50.2858 60.3823 50.2858H60.3813ZM56.8741 43.2951V44.7098H50.8964V43.2951H56.8741ZM54.7512 43.2951V50.1587H52.9884V43.2951H54.7512ZM48.3345 45.7632V45.3126C48.3345 44.822 48.2921 44.3904 48.2064 44.019C48.1208 43.6475 47.9946 43.3341 47.8281 43.0798C47.6615 42.8255 47.4584 42.6353 47.2177 42.5091C46.978 42.3779 46.7036 42.3129 46.3946 42.3129C46.0855 42.3129 45.8111 42.3779 45.5714 42.5091C45.3355 42.6363 45.1343 42.8265 44.9678 43.0798C44.8051 43.3331 44.6809 43.6465 44.5961 44.019C44.5114 44.3914 44.4681 44.823 44.4681 45.3126V45.7632C44.4681 46.2498 44.5105 46.6813 44.5961 47.0568C44.6818 47.4292 44.808 47.7436 44.9745 48.002C45.1411 48.2553 45.3442 48.4485 45.5849 48.5797C45.8256 48.7108 46.099 48.7759 46.408 48.7759C46.7171 48.7759 46.9915 48.7108 47.2312 48.5797C47.4709 48.4485 47.6721 48.2563 47.8348 48.002C47.9975 47.7436 48.1217 47.4292 48.2064 47.0568C48.2921 46.6803 48.3345 46.2488 48.3345 45.7632ZM50.183 45.3256V45.7632C50.183 46.465 50.0915 47.0958 49.9086 47.6535C49.7257 48.2112 49.4676 48.6878 49.1336 49.0813C48.8005 49.4708 48.4019 49.7682 47.9378 49.9754C47.4786 50.1827 46.9684 50.2858 46.4071 50.2858C45.8458 50.2858 45.3394 50.1827 44.8763 49.9754C44.4171 49.7682 44.0185 49.4698 43.6806 49.0813C43.3427 48.6878 43.0808 48.2122 42.894 47.6535C42.7111 47.0948 42.6196 46.465 42.6196 45.7632V45.3256C42.6196 44.6197 42.7111 43.9889 42.894 43.4353C43.0769 42.8766 43.3349 42.401 43.669 42.0075C44.0069 41.614 44.4055 41.3136 44.8648 41.1063C45.3288 40.8991 45.8391 40.796 46.3955 40.796C46.952 40.796 47.4671 40.8991 47.9263 41.1063C48.3903 41.3136 48.7879 41.614 49.122 42.0075C49.4599 42.401 49.7199 42.8766 49.9028 43.4353C50.0896 43.9889 50.183 44.6197 50.183 45.3256Z" fill="#585858"/>
</g>
<defs>
<clipPath id="clip0_55_361">
<rect width="167" height="25.6" fill="white" transform="translate(0 27.2)"/>
</clipPath>
</defs>
</svg>
