<svg width="168" height="80" viewBox="0 0 168 80" fill="none" xmlns="http://www.w3.org/2000/svg">
<g clip-path="url(#clip0_55_352)">
<path fill-rule="evenodd" clip-rule="evenodd" d="M0 5.6001C0.667929 5.7116 1.32879 5.8475 1.99672 5.96947C9.94118 7.46784 17.8821 8.96274 25.8266 10.4611C25.816 10.4785 25.7948 10.5099 25.7842 10.5273L25.7736 10.4925C25.5297 10.6144 25.2965 10.7573 25.0597 10.8932C22.4445 12.3846 19.8329 13.8795 17.2142 15.3709C16.7088 15.0991 16.2141 14.8064 15.7122 14.5242C10.4748 11.5483 5.23741 8.57595 0 5.6001Z" fill="#C7C7C7"/>
<path fill-rule="evenodd" clip-rule="evenodd" d="M25.8195 10.4717C26.0916 10.4996 26.3602 10.5692 26.6287 10.6145C34.9655 12.1861 43.3022 13.7577 51.639 15.3292C51.6284 15.3327 51.6107 15.3432 51.6036 15.3501C51.3916 15.4372 51.2007 15.5662 50.9993 15.6777C48.3347 17.197 45.6735 18.7162 43.0124 20.239C41.9452 19.6466 40.892 19.0368 39.8283 18.4375C35.4461 15.946 31.0604 13.458 26.6782 10.97C26.392 10.8027 26.1022 10.6459 25.8159 10.4786L25.8195 10.4717Z" fill="#585858"/>
<path fill-rule="evenodd" clip-rule="evenodd" d="M25.0599 10.8932C25.2966 10.7573 25.5299 10.6144 25.7737 10.4924L25.7843 10.5273C23.2116 14.9423 20.6317 19.3538 18.059 23.7688C17.7833 24.2357 17.5183 24.7026 17.2391 25.1696C17.2179 24.8072 17.2356 24.4413 17.2285 24.0754C17.2144 22.2251 17.225 20.3713 17.2214 18.5175C17.2179 17.7195 17.2285 16.9215 17.2144 16.127C17.2144 15.8761 17.2144 15.6218 17.2144 15.3709C19.8295 13.883 22.4447 12.3846 25.0599 10.8932Z" fill="#585858"/>
<path fill-rule="evenodd" clip-rule="evenodd" d="M51.0029 15.6742C51.2043 15.5662 51.3916 15.4338 51.6072 15.3467C50.9993 16.413 50.3667 17.4723 49.7518 18.5351C47.8081 21.8629 45.8644 25.1942 43.9207 28.5254C43.6309 29.0272 43.3305 29.522 43.0513 30.0273H43.0266C43.0266 29.0969 43.0266 28.1665 43.0266 27.2396C43.0337 25.6681 43.016 24.093 43.0195 22.5215C43.0195 21.7583 43.0195 20.9987 43.0195 20.2356C45.6806 18.7128 48.3453 17.1935 51.0064 15.6742H51.0029Z" fill="#585858"/>
<path fill-rule="evenodd" clip-rule="evenodd" d="M17.274 25.2081C17.274 25.2081 17.3129 25.1942 17.3271 25.1907C25.8511 26.7971 34.3716 28.4035 42.8956 30.0099C42.9381 30.0168 42.9805 30.0238 43.0229 30.0308H43.0476C43.0476 30.0552 43.0335 30.0691 43.0158 30.0761C42.9169 30.0935 42.832 30.1458 42.7472 30.198C39.9766 31.7801 37.2024 33.3586 34.4317 34.9476C34.209 34.8395 34.0005 34.7036 33.7814 34.5852C28.2754 31.463 22.773 28.3338 17.2705 25.2116L17.274 25.2081Z" fill="#C7C7C7"/>
<path fill-rule="evenodd" clip-rule="evenodd" d="M42.7511 30.1945C42.8359 30.1422 42.9207 30.0899 43.0196 30.0725C40.6236 34.1843 38.2204 38.2927 35.8244 42.4045C35.365 43.1886 34.9091 43.9796 34.4461 44.7601C34.4461 44.0318 34.4461 43.307 34.4461 42.5788C34.4284 41.8226 34.4426 41.0664 34.439 40.3103C34.439 38.5227 34.439 36.7316 34.439 34.944C37.2097 33.3585 39.9839 31.78 42.7546 30.1945H42.7511Z" fill="#8F8F8F"/>
<path fill-rule="evenodd" clip-rule="evenodd" d="M117.089 34.895C117.732 34.8776 118.386 34.9612 118.983 35.2052C119.481 35.4073 119.934 35.7244 120.284 36.1321C120.655 36.5607 120.916 37.0729 121.086 37.6061C121.305 38.289 121.386 39.0069 121.393 39.7177C121.397 40.4809 121.33 41.2475 121.111 41.9827C120.948 42.5263 120.701 43.0525 120.337 43.4916C120.043 43.847 119.676 44.1467 119.262 44.3523C118.608 44.6868 117.863 44.8018 117.131 44.7948C116.453 44.7843 115.764 44.6624 115.159 44.3453C114.707 44.1118 114.315 43.7668 114.021 43.3591C113.686 42.8957 113.463 42.3556 113.325 41.805C113.159 41.136 113.106 40.4425 113.113 39.7526C113.12 39.0591 113.216 38.3657 113.435 37.7071C113.601 37.2123 113.841 36.7349 114.17 36.3237C114.534 35.8603 115.014 35.4805 115.559 35.24C116.039 35.024 116.566 34.9159 117.092 34.895H117.089ZM116.88 36.0519C116.439 36.1077 116.011 36.2749 115.661 36.5502C115.23 36.8813 114.93 37.3482 114.735 37.8465C114.481 38.5016 114.392 39.209 114.399 39.9059C114.414 40.6342 114.477 41.3764 114.742 42.0594C114.93 42.5472 115.251 43.0002 115.707 43.279C116.198 43.5856 116.792 43.6797 117.364 43.6588C117.905 43.6414 118.456 43.4846 118.888 43.1466C119.372 42.7702 119.676 42.2162 119.842 41.6412C120.068 40.8886 120.096 40.0976 120.061 39.317C120.026 38.7037 119.934 38.0869 119.693 37.5189C119.499 37.059 119.177 36.6373 118.739 36.3795C118.188 36.0519 117.513 35.9788 116.884 36.0519H116.88ZM92.3401 34.9264C93.3756 34.8532 94.4464 34.9996 95.3723 35.4839C95.4395 35.5153 95.4783 35.592 95.4607 35.6651C95.4395 35.7592 95.3865 35.8394 95.344 35.9265C95.2486 36.1112 95.1603 36.2993 95.0578 36.484C95.0224 36.5642 94.9164 36.5607 94.8493 36.5258C94.2167 36.2505 93.524 36.0937 92.8314 36.0972C92.3119 36.0868 91.7853 36.2122 91.3435 36.4875C90.8841 36.7767 90.5307 37.2088 90.2975 37.6932C89.9759 38.3552 89.8451 39.0905 89.8239 39.8188C89.8133 40.4774 89.8663 41.1499 90.0854 41.7771C90.2515 42.2615 90.5342 42.718 90.9477 43.0386C91.3647 43.3661 91.8913 43.5369 92.4179 43.5891C93.3191 43.6832 94.2344 43.4916 95.0578 43.1292C95.1461 43.0908 95.2734 43.0595 95.3511 43.1396C95.4289 43.2267 95.4607 43.3417 95.5137 43.4428C95.5808 43.61 95.6798 43.7703 95.7328 43.9446C95.7646 44.0421 95.6868 44.1223 95.6056 44.1676C95.0649 44.4777 94.4535 44.638 93.8421 44.7216C93.2696 44.7948 92.6865 44.8192 92.1104 44.7739C91.4178 44.7147 90.7215 44.516 90.149 44.1118C89.7603 43.8365 89.4352 43.4776 89.1984 43.0664C88.8344 42.4427 88.6542 41.7318 88.5729 41.0245C88.4456 39.8327 88.5128 38.5887 88.9757 37.4667C89.209 36.9022 89.5483 36.3795 89.9971 35.9578C90.6261 35.355 91.4743 34.9961 92.3437 34.9264H92.3401ZM51.0699 35.0902C51.2572 34.9996 51.4763 35.024 51.6778 35.0205C51.8898 35.0205 52.116 34.9961 52.3174 35.0902C52.4729 35.1668 52.5507 35.3341 52.6037 35.4874C53.6568 38.4528 54.7099 41.4217 55.7631 44.3871C55.809 44.4847 55.7666 44.6345 55.6429 44.6415C55.3178 44.6484 54.9962 44.6415 54.6711 44.645C54.5933 44.645 54.5085 44.6519 54.4414 44.6066C54.3777 44.5578 54.3495 44.4812 54.3212 44.4115C54.095 43.7494 53.8653 43.0873 53.6391 42.4253C52.3351 42.4253 51.031 42.4253 49.727 42.4253C49.4902 43.1048 49.2605 43.7843 49.0237 44.4638C48.9954 44.5683 48.893 44.645 48.7834 44.6415C48.4689 44.6415 48.1543 44.6415 47.8398 44.6415C47.7656 44.6415 47.6773 44.645 47.6278 44.5822C47.5748 44.516 47.5924 44.4219 47.6172 44.3488C48.6703 41.4008 49.7199 38.4493 50.773 35.5014C50.8331 35.3411 50.9073 35.1634 51.0699 35.0867V35.0902ZM51.6318 36.4422C51.1088 38.0625 50.5893 39.6864 50.0662 41.3067C51.1371 41.3067 52.2079 41.3067 53.2787 41.3067C52.7486 39.6829 52.222 38.0625 51.6954 36.4387C51.6813 36.4387 51.6495 36.4387 51.6353 36.4387L51.6318 36.4422ZM58.6822 35.0518C59.0038 35.0205 59.3254 35.0414 59.647 35.0344C60.6754 35.0344 61.7038 35.0344 62.7357 35.0344C62.8311 35.0344 62.9477 35.017 63.029 35.0902C63.1138 35.1843 63.0856 35.3236 63.0926 35.4386C63.0856 35.6338 63.1068 35.8324 63.082 36.0275C63.0714 36.1321 62.9619 36.1809 62.8664 36.1774C61.6048 36.1774 60.3432 36.1774 59.0851 36.1774C58.8059 36.1843 58.5019 36.2262 58.2864 36.4213C58.0991 36.599 58.0284 36.8673 58.0248 37.1182C58.0248 39.5191 58.0248 41.92 58.0248 44.3209C58.0142 44.4185 58.0354 44.5509 57.94 44.6136C57.8587 44.6589 57.7598 44.6415 57.6714 44.645C57.4241 44.6415 57.1767 44.6519 56.9293 44.638C56.8091 44.638 56.7385 44.516 56.7491 44.4115V38.0172C56.7526 37.6827 56.7349 37.3517 56.7667 37.0172C56.8127 36.5293 56.9682 36.0345 57.311 35.6686C57.6608 35.2853 58.1803 35.1006 58.6928 35.0484L58.6822 35.0518ZM66.1001 35.0693C66.3828 35.0205 66.669 35.0344 66.9518 35.0344C68.118 35.0344 69.2807 35.0344 70.4469 35.0344C70.5353 35.0275 70.6342 35.0728 70.6554 35.1634C70.6908 35.3236 70.666 35.4909 70.6731 35.6547C70.666 35.7941 70.6908 35.9404 70.6483 36.0763C70.6201 36.1599 70.5211 36.1739 70.4469 36.1739C69.1641 36.1739 67.8848 36.1739 66.6019 36.1739C66.2909 36.1774 65.9375 36.2471 65.7361 36.5049C65.5346 36.7663 65.5417 37.1112 65.5382 37.4249C65.5382 37.9476 65.5382 38.4702 65.5382 38.9894C67.026 38.9894 68.5173 38.9894 70.0052 38.9894C70.097 38.9825 70.1925 39.0452 70.2031 39.1393C70.2278 39.3414 70.2101 39.5435 70.2172 39.7456C70.2101 39.8362 70.2243 39.9442 70.1571 40.0174C70.0829 40.0871 69.9733 40.0697 69.8779 40.0732C68.4325 40.0732 66.9871 40.0732 65.5417 40.0732C65.5417 40.8642 65.5382 41.6587 65.5417 42.4497C65.5452 42.711 65.5982 42.9933 65.7891 43.1919C65.9941 43.4079 66.3121 43.4776 66.6019 43.4811C67.9024 43.4811 69.2065 43.4811 70.507 43.4811C70.6095 43.4741 70.7367 43.5229 70.7438 43.6414C70.7579 43.854 70.7438 44.0665 70.7508 44.2791C70.7473 44.3766 70.765 44.4847 70.7049 44.5683C70.659 44.6241 70.5777 44.6345 70.507 44.638C69.1641 44.638 67.8176 44.638 66.4747 44.638C65.8986 44.6206 65.2908 44.4707 64.8738 44.0561C64.4532 43.6449 64.2977 43.0455 64.273 42.4775C64.2694 40.7805 64.273 39.0835 64.273 37.3865C64.2659 36.8151 64.4073 36.2192 64.7748 35.7697C65.0964 35.3689 65.5912 35.139 66.0965 35.0623L66.1001 35.0693ZM72.3906 35.0867C72.486 35.0309 72.6062 35.0449 72.7157 35.0414C72.9667 35.0484 73.2176 35.0309 73.465 35.0518C73.5674 35.0518 73.6275 35.1564 73.6205 35.2505C73.6205 36.5119 73.6205 37.7698 73.6205 39.0313C75.2532 39.0347 76.8859 39.0313 78.5186 39.0313C78.5186 37.8639 78.5186 36.6966 78.5186 35.5327C78.5186 35.4073 78.5045 35.2818 78.5398 35.1599C78.5716 35.0518 78.6988 35.0484 78.7943 35.0449C79.0452 35.0449 79.2996 35.0449 79.5505 35.0449C79.6353 35.0484 79.752 35.0484 79.7908 35.1424C79.8227 35.2365 79.8085 35.3411 79.812 35.4421C79.812 38.3727 79.812 41.2997 79.812 44.2303C79.812 44.3313 79.8191 44.4359 79.7979 44.5369C79.7732 44.6275 79.6672 44.6484 79.5859 44.6484C79.2996 44.6484 79.0169 44.6484 78.7306 44.6484C78.6564 44.6484 78.5645 44.6171 78.5433 44.5404C78.5115 44.4394 78.5221 44.3313 78.5221 44.2303C78.5221 42.8678 78.5221 41.5018 78.5221 40.1394C76.8894 40.1394 75.2602 40.1394 73.6275 40.1394C73.6275 41.4809 73.6275 42.826 73.6275 44.1711C73.624 44.2895 73.6381 44.4115 73.6169 44.53C73.6028 44.6066 73.518 44.6484 73.4473 44.6484C73.1752 44.6554 72.8995 44.6484 72.6274 44.6484C72.5496 44.6484 72.4648 44.6554 72.4012 44.6066C72.3376 44.5648 72.327 44.4847 72.327 44.415C72.327 41.4112 72.327 38.411 72.327 35.4073C72.327 35.2993 72.3058 35.1668 72.3977 35.0902L72.3906 35.0867ZM81.102 35.0797C81.162 35.0379 81.2398 35.0449 81.314 35.0414C83.5475 35.0414 85.7845 35.0414 88.0216 35.0414C88.1099 35.0379 88.2371 35.0484 88.2513 35.1599C88.2619 35.3968 88.2513 35.6338 88.2583 35.8707C88.2583 35.9509 88.2654 36.038 88.2301 36.1112C88.1947 36.153 88.1347 36.1565 88.0852 36.1599C87.1487 36.1599 86.2122 36.1599 85.2756 36.1599C85.2756 38.9093 85.2756 41.6621 85.2756 44.4115C85.2756 44.4742 85.2686 44.5474 85.2226 44.5962C85.1625 44.6519 85.0742 44.6415 85 44.645C84.7102 44.6415 84.4204 44.6484 84.1306 44.6415C84.0246 44.6415 83.9504 44.5439 83.961 44.4463C83.961 41.683 83.961 38.9232 83.961 36.1599C83.0386 36.1599 82.1162 36.1599 81.1938 36.1599C81.102 36.1704 81.0525 36.0763 81.0596 35.9997C81.0596 35.7523 81.0596 35.5048 81.0596 35.2574C81.0631 35.1982 81.0596 35.125 81.1126 35.0867L81.102 35.0797ZM96.5562 35.1599C96.5633 35.0553 96.6834 35.0379 96.7683 35.0414C99.0159 35.0414 101.264 35.0414 103.508 35.0414C103.568 35.0414 103.635 35.0414 103.688 35.0728C103.759 35.1181 103.748 35.2121 103.751 35.2818C103.751 35.5292 103.759 35.7766 103.748 36.024C103.748 36.1007 103.681 36.1669 103.603 36.1565C102.656 36.1565 101.709 36.1565 100.762 36.1565C100.762 38.9163 100.762 41.6796 100.762 44.4394C100.772 44.5369 100.709 44.6345 100.606 44.638C100.345 44.645 100.083 44.638 99.8252 44.638C99.7262 44.6345 99.6202 44.6554 99.5319 44.6031C99.4541 44.5544 99.4541 44.4533 99.4506 44.3732C99.4506 41.6343 99.4506 38.8919 99.4506 36.153C98.5388 36.153 97.6235 36.153 96.7117 36.153C96.634 36.1634 96.5527 36.1077 96.5562 36.0275C96.5527 35.7383 96.5491 35.4456 96.5562 35.1564V35.1599ZM105.105 35.24C105.207 35.1006 105.388 35.0484 105.554 35.0344C106.091 35.0135 106.625 35.0275 107.162 35.024C107.466 35.0275 107.77 35.01 108.074 35.017C108.618 35.024 109.169 34.9856 109.71 35.0937C110.268 35.1947 110.83 35.4212 111.212 35.8533C111.586 36.2715 111.738 36.8464 111.724 37.3935C111.735 38.174 111.268 38.9511 110.547 39.2856C110.544 39.3135 110.54 39.3414 110.54 39.3693C111.003 39.5226 111.42 39.8153 111.689 40.2195C112.078 40.777 112.194 41.4844 112.124 42.1465C112.06 42.7215 111.805 43.272 111.406 43.6937C110.812 44.3174 109.936 44.631 109.081 44.645C107.936 44.645 106.794 44.645 105.649 44.645C105.462 44.645 105.257 44.6066 105.13 44.4603C104.978 44.286 104.978 44.0386 104.981 43.8226C104.981 41.1534 104.981 38.4807 104.981 35.8115C104.981 35.6198 104.985 35.4073 105.105 35.2435V35.24ZM106.271 36.1739C106.271 37.0834 106.271 37.9894 106.271 38.8988C107.102 38.8988 107.936 38.8988 108.766 38.8988C109.155 38.8988 109.561 38.8187 109.879 38.5887C110.134 38.411 110.3 38.1288 110.364 37.8326C110.427 37.5224 110.417 37.1879 110.279 36.8987C110.152 36.6234 109.904 36.4108 109.621 36.2993C109.402 36.2087 109.162 36.1739 108.925 36.1739C108.042 36.1739 107.155 36.1739 106.271 36.1739ZM106.271 39.9547C106.271 41.1325 106.271 42.3103 106.271 43.4846C107.134 43.4846 107.996 43.4846 108.862 43.4846C109.25 43.4811 109.65 43.4149 109.996 43.2267C110.406 43.0037 110.689 42.5925 110.784 42.1465C110.911 41.5855 110.809 40.9373 110.395 40.5122C110.01 40.1115 109.434 39.9651 108.893 39.9582C108.021 39.9512 107.148 39.9582 106.275 39.9582L106.271 39.9547ZM51.9145 48.7742C52.7839 48.7638 53.678 48.8613 54.4696 49.2307C54.6004 49.2934 54.7417 49.3527 54.8548 49.4433C54.9503 49.5443 54.8866 49.6872 54.8478 49.7987C54.6887 50.1541 54.5226 50.5095 54.3636 50.8685C54.3318 50.9347 54.2859 51.0183 54.201 51.0218C54.095 51.0253 53.9961 50.9765 53.8971 50.9486C53.261 50.7221 52.5789 50.5897 51.9004 50.6385C51.4092 50.6803 50.9356 50.8998 50.6034 51.2622C50.1546 51.7396 49.9355 52.3808 49.8507 53.015C49.7765 53.5899 49.7906 54.1788 49.8895 54.7538C49.9885 55.3009 50.2147 55.8619 50.6635 56.2208C51.0946 56.5728 51.6742 56.6877 52.222 56.6773C52.9041 56.6808 53.5685 56.4787 54.1975 56.2382C54.3141 56.1999 54.4378 56.1302 54.565 56.1651C54.6605 56.2034 54.6958 56.3114 54.7382 56.395C54.8902 56.7121 55.0421 57.0292 55.1941 57.3463C55.2294 57.4265 55.2683 57.5136 55.2648 57.6042C55.2612 57.6843 55.1976 57.7436 55.134 57.7819C54.5191 58.1583 53.8123 58.3813 53.0984 58.4788C52.48 58.5625 51.8545 58.5799 51.2325 58.5206C50.5681 58.451 49.9072 58.2593 49.3453 57.8934C48.8753 57.5868 48.4936 57.1582 48.225 56.6668C47.9317 56.1302 47.7656 55.5343 47.6773 54.9315C47.5854 54.2625 47.5642 53.5795 47.6419 52.9104C47.7656 51.8058 48.2074 50.7047 49.0237 49.9241C49.78 49.1784 50.8543 48.7916 51.9181 48.7742H51.9145ZM136.392 48.7742C137.367 48.7638 138.378 48.8997 139.229 49.391C139.307 49.4293 139.371 49.5129 139.353 49.6035C139.318 49.7952 139.215 49.9659 139.141 50.1471C139.017 50.4085 138.908 50.6768 138.777 50.9347C138.721 51.0427 138.583 51.0322 138.487 50.9939C138.007 50.8232 137.515 50.6838 137.007 50.642C136.643 50.6141 136.264 50.6036 135.915 50.7186C135.452 50.8545 135.059 51.1786 134.801 51.5758C134.448 52.1125 134.299 52.7536 134.261 53.3843C134.236 53.9454 134.261 54.5134 134.409 55.0569C134.533 55.5204 134.773 55.9734 135.172 56.2626C135.586 56.5728 136.123 56.6808 136.635 56.6738C137.303 56.6843 137.957 56.4961 138.576 56.2626C138.713 56.2208 138.844 56.1372 138.993 56.1546C139.07 56.1685 139.113 56.2382 139.145 56.3044C139.304 56.6424 139.466 56.9805 139.629 57.3185C139.671 57.416 139.724 57.5171 139.707 57.6251C139.685 57.7296 139.583 57.7784 139.502 57.8272C138.593 58.3604 137.519 58.552 136.473 58.552C135.483 58.5729 134.448 58.3813 133.639 57.7854C133.218 57.4753 132.875 57.0641 132.635 56.6041C132.349 56.0675 132.193 55.4716 132.112 54.8758C131.953 53.6492 132.017 52.3599 132.547 51.2239C132.967 50.297 133.734 49.5095 134.692 49.1157C135.225 48.8892 135.805 48.7847 136.385 48.7742H136.392ZM64.8278 49.0565C65.0151 48.9066 65.2696 48.8927 65.5028 48.8962C66.5736 48.8962 67.6444 48.8962 68.7152 48.8962C69.309 48.8857 69.9133 48.9868 70.4504 49.2516C70.9593 49.4955 71.3905 49.8997 71.6555 50.3946C71.9206 50.8789 72.0301 51.4399 72.0089 51.9905C71.9842 52.6386 71.7898 53.2972 71.3834 53.8199C71.0548 54.2485 70.5847 54.5552 70.0758 54.7329C69.5175 54.928 68.9202 54.9733 68.33 54.9733C67.7823 54.9733 67.2345 54.9733 66.6867 54.9733C66.6867 56.0292 66.6867 57.085 66.6867 58.1408C66.6867 58.2279 66.6832 58.3394 66.5948 58.3847C66.5065 58.4196 66.4111 58.4126 66.3192 58.4126C65.8174 58.4091 65.312 58.4196 64.8102 58.4091C64.6865 58.4091 64.5875 58.2942 64.5946 58.1757C64.5946 55.3497 64.5946 52.5236 64.5946 49.6976C64.5946 49.4711 64.637 49.2133 64.8278 49.0634V49.0565ZM66.6903 50.7221C66.6903 51.5793 66.6903 52.433 66.6903 53.2903H68.4891C68.7824 53.2868 69.0828 53.231 69.3302 53.0672C69.5775 52.9104 69.7401 52.6456 69.8037 52.3634C69.8779 52.0288 69.8497 51.6664 69.6942 51.3598C69.5705 51.1089 69.3443 50.9138 69.0792 50.8197C68.8425 50.7291 68.5845 50.7151 68.33 50.7186C67.7823 50.7186 67.2345 50.7186 66.6867 50.7186L66.6903 50.7221ZM74.7372 48.9554C74.4863 49.0356 74.3485 49.283 74.2672 49.5164C73.3024 52.3912 72.3341 55.266 71.3658 58.1373C71.3198 58.2489 71.3799 58.4022 71.5177 58.4022C72.0832 58.4091 72.6486 58.4022 73.214 58.4022C73.3519 58.4091 73.5003 58.3429 73.5392 58.207C73.73 57.6147 73.9067 57.0188 74.0975 56.4264C75.1436 56.4264 76.1897 56.4264 77.2358 56.4264C77.416 57.0153 77.5962 57.6077 77.7765 58.2001C77.7977 58.2907 77.8719 58.3673 77.9638 58.3882C78.0981 58.4196 78.2359 58.4022 78.3737 58.4057C78.8579 58.4057 79.342 58.4057 79.8226 58.4057C79.911 58.4126 79.9923 58.3464 80.0064 58.2593C80.0135 58.1478 79.9569 58.0433 79.9251 57.9387C78.9886 55.158 78.0521 52.3738 77.1156 49.5931C77.0308 49.3596 76.9283 49.0983 76.6915 48.9833C76.4088 48.8544 76.0872 48.8927 75.7868 48.8857C75.4334 48.8962 75.0694 48.8474 74.7266 48.9589L74.7372 48.9554ZM75.6384 51.088C75.656 51.088 75.6949 51.088 75.7161 51.088C75.8822 51.7361 76.0554 52.3843 76.225 53.0289C76.3982 53.6004 76.5714 54.1684 76.7445 54.7364C76.0307 54.7364 75.3132 54.7364 74.5994 54.7364C74.7796 54.137 74.9634 53.5411 75.1401 52.9418C75.3062 52.3215 75.4758 51.7013 75.6419 51.081L75.6384 51.088ZM89.1631 49.4851C89.6154 49.0704 90.2445 48.9101 90.8452 48.8962C92.1776 48.8962 93.5134 48.8962 94.8457 48.8962C94.9341 48.8962 95.0437 48.8892 95.1108 48.9624C95.1532 49.0321 95.1532 49.1122 95.1532 49.1924C95.1532 49.5548 95.1532 49.9137 95.1532 50.2761C95.1461 50.3841 95.1709 50.5061 95.1143 50.6036C95.0613 50.6768 94.9588 50.6768 94.8776 50.6803C93.7431 50.6803 92.6087 50.6803 91.4778 50.6803C91.2198 50.6733 90.9336 50.6977 90.7322 50.8754C90.559 51.0287 90.513 51.2657 90.5095 51.4852C90.5095 51.8407 90.5095 52.1961 90.5095 52.5515C91.8065 52.5515 93.107 52.5515 94.404 52.5515C94.4817 52.5515 94.5701 52.5515 94.6408 52.5933C94.7185 52.6561 94.7079 52.7641 94.7185 52.8512C94.7256 53.1822 94.7185 53.5133 94.7185 53.8443C94.715 53.9454 94.7185 54.0534 94.6832 54.1544C94.6408 54.245 94.5242 54.2555 94.4358 54.259C93.1247 54.259 91.8171 54.259 90.506 54.259C90.506 54.7852 90.506 55.3113 90.506 55.8375C90.5095 56.0675 90.5696 56.3253 90.771 56.4647C90.9937 56.6146 91.2729 56.6076 91.5344 56.6111C92.7112 56.6111 93.888 56.6111 95.0649 56.6111C95.1355 56.6111 95.2239 56.6146 95.2663 56.6843C95.3087 56.7644 95.3016 56.862 95.3087 56.9491C95.3087 57.3115 95.3087 57.6739 95.3087 58.0363C95.3016 58.1304 95.3087 58.2349 95.2592 58.3185C95.2062 58.3847 95.1143 58.4022 95.0331 58.3987C93.7113 58.3987 92.3861 58.3987 91.0643 58.3987C90.4777 58.4091 89.8593 58.329 89.361 58.0084C88.9864 57.7715 88.7142 57.3951 88.5729 56.9805C88.4492 56.6215 88.4068 56.2382 88.4138 55.8584V51.7605C88.4138 51.4818 88.3997 51.1995 88.4421 50.9242C88.5128 50.3841 88.7425 49.8475 89.1595 49.4781L89.1631 49.4851ZM99.1466 48.9031C100.518 48.8892 101.885 48.9031 103.257 48.8962C103.352 48.8962 103.458 48.8857 103.543 48.9415C103.599 48.9972 103.61 49.0843 103.61 49.161C103.61 49.5548 103.61 49.9485 103.61 50.3423C103.61 50.4329 103.617 50.5305 103.568 50.6071C103.511 50.6838 103.402 50.6768 103.32 50.6838C102.133 50.6838 100.949 50.6838 99.7616 50.6838C99.5106 50.6907 99.2279 50.7535 99.0795 50.973C98.9381 51.1681 98.9417 51.419 98.9452 51.6455C98.9452 53.4993 98.9452 55.3531 98.9452 57.207C98.9381 57.5554 98.9593 57.9074 98.9346 58.2558C98.9346 58.3638 98.8215 58.4091 98.7296 58.4057C98.2137 58.4091 97.6977 58.4057 97.1817 58.4057C97.0898 58.4057 96.9803 58.4057 96.9131 58.336C96.8495 58.2767 96.846 58.1826 96.846 58.099C96.846 55.9246 96.846 53.7537 96.846 51.5793C96.8319 51.0253 96.9061 50.4538 97.1888 49.9659C97.415 49.5652 97.786 49.2516 98.2207 49.0878C98.5176 48.9694 98.8357 48.9171 99.1537 48.8997L99.1466 48.9031ZM104.815 48.9624C104.886 48.8997 104.988 48.8962 105.08 48.8962C105.575 48.8962 106.07 48.8962 106.565 48.8962C106.646 48.8962 106.755 48.9031 106.791 48.9937C106.826 49.0878 106.808 49.1889 106.812 49.2865C106.812 51.2762 106.812 53.2693 106.812 55.2591C106.9 55.273 106.929 55.1789 106.967 55.1232C108.12 53.2484 109.279 51.3772 110.434 49.5025C110.54 49.3352 110.646 49.161 110.809 49.039C110.971 48.9206 111.18 48.9031 111.378 48.8962C111.618 48.8962 111.862 48.8962 112.102 48.8962C112.307 48.9031 112.53 48.9345 112.689 49.0774C112.866 49.2411 112.901 49.492 112.912 49.7185C112.912 52.4923 112.912 55.266 112.912 58.0398C112.908 58.1304 112.926 58.2279 112.88 58.3081C112.83 58.3882 112.721 58.4022 112.632 58.4022C112.127 58.4022 111.625 58.4022 111.123 58.4022C111.042 58.4022 110.943 58.4022 110.887 58.3325C110.83 58.2558 110.851 58.1548 110.848 58.0677C110.848 56.0675 110.848 54.0638 110.848 52.0637C110.834 52.0637 110.805 52.0567 110.791 52.0532C110.431 52.6352 110.084 53.2241 109.731 53.8095C108.929 55.1162 108.105 56.409 107.296 57.7122C107.172 57.9039 107.059 58.113 106.872 58.2558C106.692 58.3917 106.459 58.4022 106.243 58.4057C105.999 58.4057 105.755 58.4091 105.515 58.4022C105.282 58.3882 105.024 58.3046 104.893 58.099C104.741 57.8586 104.752 57.5659 104.755 57.2941C104.755 54.6249 104.755 51.9557 104.755 49.2865C104.755 49.1784 104.734 49.053 104.812 48.9624H104.815ZM114.505 49.0948C114.505 48.9694 114.629 48.8927 114.746 48.8997C115.251 48.8962 115.753 48.8997 116.258 48.8997C116.347 48.8997 116.442 48.8927 116.523 48.938C116.591 48.9798 116.598 49.0634 116.598 49.1366C116.598 49.945 116.598 50.75 116.598 51.5584C116.598 51.8929 116.633 52.2344 116.778 52.5376C116.894 52.7885 117.099 52.9976 117.35 53.1265C117.665 53.2903 118.022 53.346 118.375 53.3669C118.923 53.3913 119.478 53.3495 120.019 53.2554C120.019 51.9452 120.019 50.6315 120.019 49.3213C120.019 49.2202 120.004 49.1122 120.043 49.0146C120.082 48.9171 120.202 48.9031 120.294 48.9031C120.789 48.9031 121.28 48.9031 121.775 48.9031C121.867 48.9031 121.969 48.8962 122.054 48.9519C122.121 49.0147 122.111 49.1157 122.118 49.2028C122.118 52.1717 122.118 55.1441 122.118 58.1164C122.111 58.2001 122.118 58.2976 122.058 58.3638C121.983 58.4161 121.888 58.4126 121.8 58.4161C121.294 58.4161 120.792 58.4161 120.287 58.4161C120.206 58.4161 120.114 58.4091 120.061 58.3429C120.001 58.2593 120.015 58.1478 120.015 58.0537C120.015 57.0641 120.015 56.0745 120.015 55.0883C119.283 55.1963 118.541 55.2347 117.803 55.1894C117.145 55.1406 116.477 55.0117 115.901 54.6876C115.431 54.4297 115.053 54.0185 114.831 53.5342C114.647 53.1404 114.558 52.7083 114.523 52.2762C114.495 51.9661 114.509 51.656 114.505 51.3493C114.505 50.6036 114.505 49.8544 114.505 49.1087V49.0948ZM125.588 49.0809C125.956 48.9415 126.351 48.8962 126.744 48.8997C128.062 48.8997 129.384 48.8997 130.705 48.8997C130.822 48.8892 130.907 48.9903 130.903 49.0983C130.914 49.5129 130.903 49.9241 130.91 50.3388C130.907 50.4364 130.917 50.5514 130.847 50.6315C130.783 50.6803 130.695 50.6803 130.621 50.6838C129.444 50.6838 128.27 50.6838 127.094 50.6838C126.836 50.6873 126.546 50.7604 126.394 50.9869C126.231 51.2378 126.27 51.548 126.267 51.8337C126.267 52.0741 126.267 52.3146 126.267 52.555C127.235 52.555 128.203 52.555 129.172 52.555C129.546 52.562 129.924 52.5446 130.303 52.5655C130.409 52.5655 130.469 52.6735 130.469 52.7676C130.472 53.1613 130.469 53.5516 130.469 53.9454C130.469 54.0255 130.472 54.1161 130.423 54.1858C130.377 54.252 130.281 54.259 130.207 54.2625C128.892 54.2625 127.578 54.2625 126.263 54.2625C126.263 54.7782 126.263 55.2904 126.263 55.8061C126.263 56.0361 126.309 56.2975 126.507 56.4473C126.708 56.6006 126.977 56.6076 127.217 56.6111C128.422 56.6111 129.631 56.6111 130.836 56.6111C130.9 56.6111 130.978 56.625 131.02 56.6843C131.055 56.747 131.052 56.8202 131.055 56.8933C131.055 57.2557 131.055 57.6181 131.055 57.9771C131.048 58.0886 131.073 58.207 131.016 58.3081C130.97 58.3917 130.857 58.4022 130.773 58.4022C129.387 58.4022 128.002 58.4022 126.617 58.4022C126.048 58.3917 125.457 58.2767 124.998 57.9283C124.581 57.6181 124.33 57.1338 124.235 56.639C124.178 56.3741 124.167 56.1023 124.16 55.8305C124.16 54.3705 124.16 52.9139 124.16 51.4539C124.16 50.9068 124.266 50.3388 124.574 49.8753C124.811 49.506 125.175 49.2272 125.588 49.0774V49.0809ZM146.534 49.0565C146.555 48.9345 146.683 48.8788 146.799 48.8822C147.305 48.8822 147.806 48.8822 148.312 48.8822C148.386 48.8822 148.481 48.8822 148.531 48.9554C148.57 49.0216 148.559 49.1018 148.545 49.1715C148.39 49.7638 148.234 50.3597 148.082 50.9521C147.958 51.3842 147.888 51.8337 147.69 52.2379C147.485 52.663 147.163 53.0394 146.753 53.2798C146.753 53.2937 146.75 53.3251 146.746 53.339C147.146 53.4715 147.538 53.6875 147.771 54.0499C147.99 54.374 148.079 54.7608 148.178 55.1336C148.446 56.1337 148.718 57.1338 148.99 58.1304C149.008 58.207 149.015 58.2976 148.959 58.3604C148.913 58.4022 148.849 58.4057 148.792 58.4057C148.266 58.4057 147.743 58.4057 147.216 58.4057C147.068 58.43 146.93 58.329 146.909 58.1861C146.658 57.308 146.403 56.4334 146.153 55.5553C146.057 55.2068 145.958 54.8374 145.7 54.5656C145.538 54.3879 145.311 54.2764 145.071 54.2276C144.743 54.151 144.4 54.1719 144.064 54.1684C143.788 54.1684 143.513 54.1684 143.237 54.1684C143.248 54.9211 143.244 55.6737 143.244 56.4264C143.248 57.0362 143.258 57.646 143.248 58.2558C143.251 58.3569 143.149 58.4091 143.057 58.4022C142.509 58.4022 141.965 58.4022 141.417 58.4022C141.346 58.3987 141.269 58.4057 141.208 58.3638C141.155 58.322 141.152 58.2523 141.155 58.1896V49.0948C141.141 49.0007 141.216 48.9066 141.314 48.9101C141.894 48.9031 142.474 48.9101 143.053 48.9101C143.124 48.9066 143.223 48.9241 143.241 49.0077C143.226 50.1994 143.241 51.3911 143.233 52.5829C143.622 52.5829 144.014 52.5829 144.407 52.5829C144.707 52.5759 145.022 52.5202 145.276 52.3494C145.605 52.1334 145.792 51.771 145.898 51.4086C146.11 50.6245 146.319 49.8405 146.534 49.0565ZM150.528 48.9275C150.612 48.8892 150.704 48.8997 150.796 48.8997C151.259 48.8997 151.722 48.8997 152.185 48.8997C152.266 48.8997 152.362 48.8997 152.429 48.9554C152.475 49.0146 152.468 49.0913 152.475 49.1645C152.475 51.1925 152.475 53.2241 152.475 55.2521C152.493 55.2521 152.531 55.2521 152.549 55.2521C153.715 53.346 154.896 51.4469 156.069 49.5443C156.2 49.3387 156.327 49.1087 156.55 48.9868C156.797 48.8648 157.083 48.8997 157.348 48.8927C157.606 48.8962 157.875 48.8718 158.126 48.9484C158.281 48.9937 158.416 49.1018 158.479 49.2516C158.578 49.4746 158.575 49.7255 158.575 49.9659C158.575 52.6979 158.575 55.4333 158.575 58.1652C158.575 58.2279 158.56 58.3011 158.507 58.3464C158.44 58.4057 158.341 58.4022 158.257 58.4057C157.751 58.4057 157.249 58.4057 156.744 58.4057C156.649 58.4057 156.528 58.3743 156.514 58.2698C156.486 58.1025 156.507 57.9317 156.504 57.7645C156.504 55.8654 156.504 53.9628 156.504 52.0637C156.44 52.0497 156.422 52.1055 156.398 52.1403C156.005 52.7989 155.61 53.454 155.214 54.1091C154.447 55.3392 153.676 56.5658 152.91 57.7958C152.775 58.0049 152.637 58.2384 152.394 58.3395C152.157 58.4301 151.895 58.4022 151.648 58.4091C151.351 58.4022 151.033 58.444 150.764 58.2976C150.556 58.1861 150.453 57.9527 150.432 57.7331C150.408 57.5171 150.425 57.301 150.422 57.085C150.422 54.4367 150.422 51.7849 150.422 49.1366C150.415 49.0565 150.45 48.9659 150.531 48.931L150.528 48.9275ZM159.96 48.9763C160.002 48.9031 160.101 48.8962 160.179 48.8962C160.61 48.8962 161.038 48.8962 161.469 48.8962C161.67 48.9031 161.879 48.8753 162.08 48.931C162.201 48.9659 162.282 49.0669 162.342 49.1715C162.847 50.0565 163.356 50.9451 163.865 51.8302C164.324 51.0183 164.784 50.2064 165.243 49.398C165.321 49.269 165.381 49.1262 165.487 49.0181C165.597 48.9066 165.766 48.8997 165.915 48.8962C166.452 48.8962 166.986 48.8962 167.523 48.8962C167.597 48.8962 167.692 48.9101 167.728 48.9833C167.752 49.0565 167.724 49.1296 167.685 49.1924C166.805 50.6106 165.929 52.0323 165.045 53.4506C165.989 54.9664 166.94 56.4787 167.887 57.9945C167.933 58.0781 168.01 58.1582 167.996 58.2593C167.996 58.336 167.919 58.4057 167.841 58.4022C167.251 58.4022 166.664 58.4022 166.074 58.4022C165.943 58.4022 165.805 58.3917 165.699 58.3116C165.572 58.2175 165.501 58.0677 165.424 57.9352C164.908 57.0258 164.388 56.1163 163.869 55.2068C163.851 55.151 163.801 55.2033 163.798 55.2312C163.271 56.172 162.738 57.1059 162.208 58.0467C162.133 58.1652 162.052 58.2907 161.918 58.3534C161.78 58.4161 161.621 58.4022 161.476 58.4057C160.932 58.4057 160.388 58.4091 159.843 58.4057C159.709 58.4022 159.674 58.2279 159.741 58.1339C160.713 56.5762 161.695 55.0256 162.667 53.468C161.776 52.0428 160.893 50.6141 160.002 49.1889C159.96 49.1296 159.925 49.046 159.967 48.9798L159.96 48.9763ZM55.8726 48.9868C55.9433 48.8892 56.0741 48.9136 56.1801 48.9136C58.4242 48.9136 60.6718 48.9136 62.9159 48.9136C63.0467 48.9171 63.1774 48.8997 63.3082 48.931C63.4142 48.9693 63.4178 49.0983 63.4213 49.1924C63.4213 49.5757 63.4213 49.959 63.4213 50.3423C63.4178 50.4329 63.4213 50.5409 63.3541 50.6141C63.2905 50.6803 63.188 50.6803 63.1068 50.6838C62.2904 50.6838 61.474 50.6838 60.6577 50.6838C60.6577 53.0742 60.6577 55.4647 60.6577 57.8516C60.6542 57.9945 60.6718 58.1408 60.6365 58.2802C60.6117 58.3813 60.4916 58.4022 60.3997 58.4057C59.8837 58.4057 59.3678 58.4057 58.8553 58.4057C58.7705 58.4057 58.6751 58.4022 58.608 58.3464C58.5443 58.2941 58.5337 58.207 58.5337 58.1339C58.5337 55.6493 58.5337 53.1683 58.5337 50.6838C57.7174 50.6838 56.901 50.6838 56.0811 50.6838C55.9539 50.6942 55.8338 50.6001 55.8373 50.4712C55.8232 50.0879 55.8373 49.7046 55.8302 49.3213C55.8338 49.2098 55.8196 49.0913 55.8726 48.9903V48.9868ZM79.6601 49.0983C79.653 48.9937 79.7449 48.9066 79.8509 48.9136C82.2364 48.9136 84.6183 48.9136 87.0038 48.9136C87.0744 48.9136 87.1663 48.9275 87.2052 48.9972C87.2441 49.0774 87.2405 49.1715 87.2405 49.2586C87.2405 49.6314 87.2405 50.0008 87.2405 50.3736C87.237 50.4538 87.2405 50.5479 87.1805 50.6106C87.1204 50.6768 87.025 50.6803 86.9402 50.6838C86.1203 50.6838 85.2968 50.6838 84.4769 50.6838C84.4769 53.0742 84.4769 55.4647 84.4769 57.8551C84.4699 57.998 84.4946 58.1478 84.4522 58.2872C84.4169 58.3882 84.2932 58.3987 84.2048 58.4057C83.7207 58.4057 83.2365 58.4057 82.7523 58.4057C82.6499 58.4057 82.5438 58.4161 82.452 58.3673C82.3742 58.3185 82.3459 58.221 82.3495 58.1373C82.3495 55.6528 82.3495 53.1683 82.3495 50.6838C81.5685 50.6838 80.791 50.6838 80.0099 50.6838C79.911 50.6838 79.8014 50.6907 79.7166 50.628C79.6566 50.5688 79.6495 50.4817 79.653 50.405C79.653 49.9694 79.653 49.5339 79.653 49.1018L79.6601 49.0983ZM101.465 62.7335C101.73 62.6255 102.023 62.6464 102.306 62.6429C102.575 62.6429 102.843 62.636 103.112 62.6534C103.296 62.6673 103.497 62.7126 103.628 62.8555C103.829 63.0646 103.896 63.3573 103.988 63.6221C104.904 66.3401 105.815 69.0581 106.734 71.7761C106.762 71.8702 106.815 71.9712 106.773 72.0723C106.745 72.142 106.663 72.1733 106.593 72.1698C106.098 72.1698 105.603 72.1698 105.112 72.1698C104.978 72.1664 104.836 72.1838 104.706 72.1385C104.624 72.1071 104.571 72.0305 104.55 71.9503C104.37 71.3649 104.193 70.776 104.013 70.1906C102.967 70.1906 101.921 70.1906 100.875 70.1906C100.709 70.7377 100.532 71.2848 100.366 71.8318C100.334 71.9224 100.316 72.02 100.246 72.0897C100.164 72.1629 100.051 72.1664 99.9489 72.1698C99.4223 72.1698 98.8993 72.1698 98.3727 72.1698C98.2949 72.1698 98.2066 72.1629 98.1607 72.0967C98.1112 72.027 98.1288 71.9364 98.1571 71.8632C99.1219 68.9884 100.09 66.1136 101.059 63.2388C101.136 63.0367 101.256 62.8241 101.468 62.737L101.465 62.7335ZM102.412 64.8487C102.246 65.4655 102.08 66.0822 101.914 66.7025C101.737 67.3053 101.55 67.9047 101.37 68.5075C102.087 68.5075 102.801 68.5075 103.518 68.5075C103.342 67.9291 103.165 67.3471 102.992 66.7687C102.822 66.131 102.656 65.4933 102.49 64.8522C102.472 64.8522 102.433 64.8522 102.416 64.8487H102.412ZM48.4159 62.8834C48.4053 62.7649 48.5007 62.6638 48.6208 62.6638C49.1015 62.6534 49.5856 62.6638 50.0662 62.6604C50.1687 62.6604 50.2712 62.6534 50.3702 62.6848C50.4656 62.7196 50.4621 62.8346 50.4691 62.9182C50.4691 64.9532 50.4691 66.9882 50.4691 69.0198C50.5115 69.0198 50.5504 69.0128 50.5681 68.9745C51.7449 67.0614 52.9288 65.1518 54.1092 63.2388C54.2116 63.075 54.3177 62.9078 54.4767 62.7928C54.6499 62.6708 54.869 62.6604 55.0739 62.6604C55.3249 62.6604 55.5758 62.6569 55.8267 62.6604C56.0599 62.6743 56.3215 62.744 56.4451 62.9566C56.59 63.2179 56.5688 63.5245 56.5688 63.8138C56.5688 66.4725 56.5688 69.1313 56.5688 71.7935C56.5653 71.8946 56.5865 72.013 56.5158 72.1001C56.4522 72.1629 56.3533 72.1664 56.2684 72.1698C55.7631 72.1698 55.2612 72.1698 54.7559 72.1698C54.6746 72.1664 54.5721 72.1594 54.5262 72.0827C54.4838 71.9921 54.4979 71.8911 54.4944 71.797C54.4944 69.9536 54.4944 68.1138 54.4944 66.2704C54.4908 66.1171 54.5085 65.9603 54.4802 65.8104C54.3989 65.8488 54.3707 65.9359 54.3283 66.0056C53.9537 66.6293 53.5791 67.2531 53.2009 67.8733C52.5436 68.9257 51.8863 69.9745 51.2289 71.0269C51.077 71.2673 50.9285 71.5147 50.7695 71.7517C50.6564 71.9189 50.508 72.0758 50.303 72.128C50.0168 72.1977 49.7199 72.1629 49.4266 72.1698C49.1651 72.1733 48.8718 72.1698 48.6597 71.9956C48.4583 71.8283 48.4053 71.5496 48.4053 71.3022C48.4053 68.4971 48.4053 65.692 48.4053 62.8834H48.4159ZM58.7034 62.7335C58.7705 62.6778 58.8659 62.6743 58.9508 62.6778C59.4667 62.6778 59.9827 62.6778 60.4951 62.6778C60.5799 62.6778 60.686 62.7022 60.7142 62.7928C60.746 62.8834 60.7319 62.9809 60.7354 63.0715C60.7354 64.1587 60.7354 65.2459 60.7354 66.3296C61.9723 66.3296 63.2128 66.3296 64.4497 66.3296C64.4497 65.2215 64.4497 64.1134 64.4497 63.0053C64.4497 62.9113 64.4497 62.7997 64.5239 62.73C64.584 62.6847 64.6653 62.6743 64.7395 62.6743C65.213 62.6743 65.6831 62.6743 66.1566 62.6743C66.2591 62.6743 66.3651 62.6638 66.4605 62.7091C66.5524 62.7649 66.5454 62.8834 66.5524 62.9775V71.8911C66.5489 71.9747 66.5454 72.0792 66.4641 72.1315C66.3899 72.1698 66.3015 72.1664 66.2202 72.1698C65.7255 72.1698 65.2342 72.1698 64.7395 72.1698C64.6441 72.1698 64.5239 72.1489 64.4815 72.0549C64.4356 71.9329 64.4532 71.8005 64.4497 71.675C64.4497 70.4798 64.4497 69.2846 64.4497 68.0894C63.2128 68.0894 61.9723 68.0894 60.7319 68.0894C60.7319 69.3682 60.7319 70.6471 60.7319 71.9259C60.7319 72.0026 60.7178 72.1001 60.64 72.135C60.5446 72.1803 60.435 72.1698 60.3326 72.1698C59.8378 72.1664 59.3395 72.1768 58.8447 72.1629C58.7104 72.1629 58.6115 72.0444 58.6221 71.9189C58.6221 68.9292 58.6221 65.9394 58.6221 62.9496C58.6221 62.8729 58.6362 62.7858 58.6998 62.7335H58.7034ZM68.6092 62.8869C68.5916 62.7579 68.7117 62.6569 68.8389 62.6638C69.3832 62.6638 69.9309 62.6569 70.4787 62.6638C70.6024 62.6569 70.6766 62.7719 70.666 62.8834C70.6696 64.9288 70.666 66.9743 70.666 69.0198C70.6837 69.0198 70.719 69.0198 70.7367 69.0163C71.8817 67.1555 73.0303 65.2982 74.1788 63.4374C74.3308 63.2005 74.458 62.9287 74.7054 62.7719C74.9598 62.6255 75.2638 62.6708 75.543 62.6638C75.8575 62.6708 76.2038 62.622 76.483 62.7997C76.7127 62.9565 76.7516 63.2562 76.7622 63.5106C76.7622 66.2321 76.7622 68.9535 76.7622 71.675C76.7551 71.797 76.7799 71.9294 76.7445 72.0479C76.7092 72.1524 76.5855 72.1698 76.4901 72.1733C76.0271 72.1733 75.5642 72.1733 75.1012 72.1733C74.9881 72.1698 74.868 72.1873 74.7655 72.1315C74.6983 72.0862 74.6948 71.9991 74.6913 71.9259C74.6913 69.8909 74.6913 67.8559 74.6913 65.8209C74.617 65.8279 74.5923 65.901 74.557 65.9568C74.2036 66.5492 73.8466 67.1416 73.4897 67.7305C72.691 69.0198 71.8817 70.3021 71.0795 71.5914C70.9487 71.7935 70.8074 72.02 70.5671 72.1106C70.3055 72.2012 70.0228 72.1664 69.7507 72.1733C69.4645 72.1733 69.1464 72.1977 68.899 72.0235C68.6764 71.8702 68.6163 71.5844 68.6128 71.3335V62.8903L68.6092 62.8869ZM78.819 62.8834C78.8084 62.7614 78.9179 62.6604 79.0381 62.6638C79.5929 62.6604 80.1478 62.6638 80.7026 62.6638C80.8192 62.6534 80.9323 62.7335 80.9253 62.8555C80.9288 65.3644 80.9253 67.8768 80.9253 70.3857C82.1622 70.3857 83.3955 70.3857 84.6324 70.3857C84.6324 67.9395 84.6324 65.4899 84.6324 63.0437C84.636 62.9496 84.6148 62.8416 84.6643 62.7579C84.7102 62.6778 84.8091 62.6604 84.894 62.6638C85.4064 62.6638 85.9224 62.6638 86.4348 62.6638C86.5161 62.6638 86.608 62.6638 86.6751 62.7161C86.721 62.7579 86.7246 62.8276 86.7281 62.8869C86.7281 65.3749 86.7281 67.8594 86.7281 70.3474C86.9684 70.3718 87.2123 70.3927 87.4526 70.4206C87.5904 70.4345 87.7388 70.4694 87.8378 70.5704C87.9403 70.6854 87.9403 70.8457 87.9367 70.992C87.8873 72.0061 87.8378 73.0201 87.7883 74.0306C87.7883 74.163 87.7883 74.3547 87.6293 74.4035C87.1769 74.4104 86.7246 74.4035 86.2758 74.4035C86.145 74.407 86.092 74.2641 86.0885 74.1595C86.0567 73.4975 86.0354 72.8319 86.0036 72.1698C83.8797 72.1698 81.7593 72.1698 79.6353 72.1698C79.3774 72.1664 79.0876 72.0862 78.9462 71.8527C78.7836 71.5844 78.819 71.2604 78.8155 70.9607C78.8155 68.2706 78.8155 65.577 78.8155 62.8869L78.819 62.8834ZM89.0676 62.7788C89.103 62.6882 89.2125 62.6638 89.3009 62.6604C89.8168 62.6604 90.3293 62.6604 90.8452 62.6604C90.9124 62.6638 90.9972 62.6604 91.0502 62.7126C91.0962 62.7544 91.0962 62.8241 91.0997 62.8834C91.0997 64.9288 91.0997 66.9743 91.0997 69.0198C91.1916 69.0372 91.2163 68.9361 91.2623 68.8769C92.4037 67.0161 93.5558 65.1588 94.7044 63.298C94.821 63.1168 94.927 62.9217 95.1073 62.7928C95.2875 62.6638 95.5172 62.6534 95.7293 62.6569C95.9802 62.6604 96.2311 62.6499 96.482 62.6638C96.6976 62.6778 96.9379 62.7405 97.0651 62.9322C97.2206 63.1761 97.2065 63.4758 97.21 63.7545C97.21 66.361 97.21 68.971 97.21 71.5775C97.2029 71.7273 97.2241 71.8771 97.1923 72.0235C97.1641 72.1385 97.0298 72.1698 96.9273 72.1664C96.4855 72.1664 96.0438 72.1664 95.6056 72.1664C95.4783 72.1629 95.344 72.1838 95.2274 72.135C95.1567 72.1036 95.1391 72.02 95.1391 71.9538C95.1391 69.9083 95.1391 67.8629 95.1391 65.8174C95.0578 65.8174 95.0366 65.8976 95.0012 65.9533C94.6231 66.584 94.2414 67.2147 93.8633 67.8454C93.0823 69.0929 92.3013 70.3439 91.5202 71.5914C91.3965 71.7796 91.2693 71.9886 91.0537 72.0897C90.8134 72.1942 90.5413 72.1664 90.2869 72.1698C89.9688 72.1629 89.6119 72.2117 89.3362 72.0165C89.0994 71.8458 89.0535 71.5356 89.05 71.2673C89.05 68.5354 89.05 65.8035 89.05 63.0715C89.05 62.974 89.0358 62.8694 89.0747 62.7754L89.0676 62.7788ZM106.504 62.7091C106.43 62.7614 106.434 62.8625 106.43 62.9461C106.43 63.3608 106.43 63.7754 106.43 64.1936C106.43 64.2772 106.455 64.3818 106.543 64.4201C106.646 64.4619 106.759 64.4445 106.868 64.448C107.618 64.448 108.367 64.448 109.116 64.448C109.116 66.9185 109.116 69.3926 109.116 71.8632C109.116 71.9503 109.127 72.0479 109.19 72.1141C109.261 72.1664 109.356 72.1733 109.445 72.1733C109.94 72.1733 110.431 72.1733 110.926 72.1733C111.014 72.1733 111.109 72.1733 111.183 72.1176C111.258 72.0305 111.236 71.905 111.24 71.8005C111.24 69.3508 111.24 66.9011 111.24 64.4514C112.056 64.4514 112.876 64.4514 113.696 64.4514C113.781 64.4514 113.88 64.4445 113.947 64.3783C114 64.319 114.004 64.2354 114.004 64.1622C114.004 63.7476 114.004 63.3329 114.004 62.9217C114.004 62.8381 113.986 62.7335 113.898 62.6987C113.781 62.6673 113.657 62.6847 113.541 62.6813C111.286 62.6813 109.028 62.6813 106.773 62.6813C106.681 62.6813 106.579 62.6673 106.497 62.7161L106.504 62.7091ZM115.184 62.9112C115.17 62.7823 115.265 62.6569 115.403 62.6604C115.863 62.6534 116.325 62.6604 116.785 62.6604C116.905 62.6638 117.029 62.6429 117.145 62.6848C117.227 62.7126 117.23 62.8102 117.234 62.8834C117.234 64.664 117.234 66.4446 117.234 68.2253C117.237 68.4866 117.227 68.7514 117.237 69.0128C117.255 69.0128 117.29 69.0163 117.308 69.0198C118.435 67.1764 119.577 65.34 120.711 63.5001C120.87 63.2597 120.997 62.9844 121.231 62.7997C121.492 62.6151 121.831 62.6673 122.135 62.6604C122.446 62.6673 122.796 62.6185 123.068 62.8032C123.305 62.9809 123.33 63.298 123.337 63.5664C123.337 66.2878 123.337 69.0128 123.337 71.7343C123.333 71.8423 123.351 71.9538 123.309 72.0549C123.263 72.1524 123.139 72.1664 123.044 72.1664C122.552 72.1664 122.058 72.1664 121.566 72.1664C121.485 72.1629 121.397 72.1664 121.33 72.1176C121.27 72.0688 121.266 71.9886 121.266 71.9189C121.266 69.8874 121.266 67.8524 121.266 65.8209C121.202 65.8035 121.188 65.8627 121.16 65.8976C120.771 66.5492 120.379 67.1973 119.987 67.8489C119.206 69.0964 118.425 70.3439 117.644 71.5949C117.509 71.797 117.368 72.0235 117.128 72.1071C116.852 72.1977 116.559 72.1594 116.276 72.1664C115.993 72.1664 115.675 72.1803 115.438 71.9956C115.212 71.8144 115.177 71.5043 115.173 71.236C115.173 68.4622 115.173 65.685 115.173 62.9112H115.184ZM125.592 62.8381C125.744 62.6917 125.97 62.6638 126.175 62.6604C127.171 62.6604 128.168 62.6604 129.165 62.6604C129.493 62.6604 129.818 62.6499 130.143 62.6848C130.709 62.7405 131.278 62.8973 131.734 63.2388C132.084 63.5001 132.342 63.88 132.458 64.2981C132.603 64.8278 132.603 65.4097 132.37 65.915C132.19 66.3157 131.882 66.6642 131.497 66.8837C131.497 66.9046 131.501 66.9464 131.501 66.9673C131.889 67.1172 132.239 67.375 132.487 67.713C132.812 68.1521 132.964 68.7027 132.971 69.2463C132.978 69.8108 132.819 70.3822 132.49 70.8492C132.038 71.5008 131.299 71.9259 130.522 72.0827C130.221 72.1454 129.914 72.1698 129.61 72.1664C128.465 72.1664 127.32 72.1664 126.178 72.1664C125.987 72.1594 125.783 72.142 125.627 72.0235C125.401 71.8423 125.404 71.5252 125.408 71.2638V63.4095C125.411 63.2074 125.443 62.9809 125.599 62.8346L125.592 62.8381ZM127.496 64.4689C127.496 65.0647 127.496 65.6641 127.496 66.2634C128.147 66.2634 128.797 66.2634 129.447 66.2634C129.737 66.253 130.041 66.1519 130.221 65.915C130.384 65.685 130.419 65.3853 130.366 65.1135C130.313 64.8557 130.119 64.6361 129.871 64.5455C129.617 64.4445 129.338 64.4724 129.069 64.4689H127.496ZM127.496 67.9291C127.496 68.734 127.496 69.539 127.496 70.3439C128.179 70.3439 128.857 70.3439 129.539 70.3439C129.857 70.3335 130.189 70.2498 130.43 70.0338C130.674 69.8247 130.79 69.5006 130.804 69.187C130.808 68.9082 130.748 68.619 130.575 68.396C130.412 68.1765 130.161 68.0336 129.896 67.9744C129.606 67.9047 129.306 67.9395 129.009 67.9326C128.504 67.9326 128.002 67.9326 127.496 67.9326V67.9291Z" fill="#585858"/>
</g>
<defs>
<clipPath id="clip0_55_352">
<rect width="168" height="68.8" fill="white" transform="translate(0 5.6001)"/>
</clipPath>
</defs>
</svg>
