<svg width="48" height="48" viewBox="0 0 48 48" fill="none" xmlns="http://www.w3.org/2000/svg">
<rect width="48" height="48" rx="4" fill="#EDEDED"/>
<path d="M20.0714 7.5H27.9286V12.2143M23.2143 12.2143H20.0714M19.2857 16.9286H24.7857M27.9286 16.9286H24.7857M24.7857 16.9286V22.4286M24.7857 22.4286H21.6429M24.7857 22.4286H27.9286M32.6429 19.2857V25.5714M36.5714 22.4286H40.5M40.5 22.4286V19.2857M40.5 22.4286V25.5714M40.5 30.2857H37.3571V32.6429H32.6429V30.2857M40.5 37.3571V40.5H35M29.5 37.3571V40.5H35M35 37.3571V40.5M19.2857 40.5V37.3571H24.7857M19.2857 32.6429H27.9286V27.1429H24.7857M20.8571 27.1429H16.9286M13 27.1429H7.5M7.5 19.2857V22.4286M12.2143 19.2857H15.3571V22.4286H17.7143M7.5 7.5V15.3571H15.3571V7.5H7.5ZM7.5 32.6429V40.5H15.3571V32.6429H7.5ZM32.6429 7.5V15.3571H40.5V7.5H32.6429Z" stroke="#029678" stroke-linecap="round" stroke-linejoin="round"/>
</svg>
