<svg width="133" height="80" viewBox="0 0 133 80" fill="none" xmlns="http://www.w3.org/2000/svg">
<g clip-path="url(#clip0_55_346)">
<path d="M0 4H99V76H0V4Z" fill="#8F8F8F"/>
<path d="M20.3378 16.6C22.2999 16.5036 24.2808 16.5672 26.2109 16.9654C28.5048 17.4236 30.7577 18.4563 32.3373 20.2581C32.3435 19.2209 32.3373 18.1836 32.3408 17.1463C34.5304 17.1445 36.72 17.1427 38.9105 17.1463C38.9123 23.3072 38.9078 29.469 38.9132 35.63C41.4711 32.6745 44.0148 29.7063 46.579 26.7563C49.2654 26.759 51.9526 26.7518 54.639 26.76C51.8599 29.8136 49.0549 32.8427 46.2695 35.89C46.1571 35.9727 46.2579 36.0954 46.3007 36.1836C49.0879 41.0972 51.8652 46.0163 54.6488 50.9309C54.8424 51.29 55.0707 51.6318 55.2312 52.01C52.9302 52.0145 50.6291 52.01 48.3289 52.0118C48.1978 52.0436 48.1389 51.91 48.0845 51.8218C46.0528 48.1136 44.0059 44.4136 41.976 40.7045C41.8743 40.7781 41.7753 40.8554 41.6905 40.949C40.7683 41.9418 39.839 42.9281 38.9123 43.9172C38.9087 46.6145 38.9123 49.3109 38.9105 52.0081C36.7209 52.0172 34.5313 52.009 32.3417 52.0127C32.3346 51.2454 32.3453 50.4781 32.3355 49.7109C31.2465 50.6327 29.9657 51.2954 28.6217 51.7345C26.5855 52.4027 24.4324 52.6118 22.3017 52.6181C20.2566 52.6309 18.191 52.42 16.2342 51.7881C14.4085 51.2045 12.6951 50.1909 11.3957 48.7472C9.38087 46.5663 8.42119 43.6009 8.0796 40.6754C10.3227 40.439 12.5667 40.2054 14.8134 40.0045C15.1273 41.8263 15.7802 43.6972 17.1617 44.9645C18.496 46.2045 20.3494 46.6663 22.1162 46.68C23.685 46.6872 25.3297 46.5018 26.7014 45.6663C27.6762 45.04 28.5209 44.1081 28.8428 42.96C29.114 41.9618 29.0266 40.8127 28.4112 39.9609C27.8127 39.1218 26.8512 38.6709 25.9246 38.319C22.9724 37.3009 19.874 36.8 16.9361 35.7381C15.5394 35.2227 14.1561 34.6081 12.9591 33.6981C11.3323 32.41 10.0569 30.6036 9.57976 28.5436C9.1463 26.7036 9.24263 24.7218 9.94454 22.9627C10.4494 21.6981 11.2092 20.5327 12.2028 19.6127C13.1464 18.729 14.2756 18.0663 15.4689 17.599C17.0244 16.9981 18.6815 16.7045 20.3378 16.599V16.6ZM17.5765 23.2845C17.102 23.5563 16.6391 23.889 16.3349 24.359C15.7677 25.2263 15.7891 26.449 16.3858 27.2954C16.8487 27.9736 17.5765 28.3872 18.306 28.7045C19.9337 29.4009 21.6515 29.8381 23.3622 30.2627C25.2271 30.72 27.084 31.2281 28.8812 31.9163C30.1058 32.3863 31.3054 32.9663 32.3373 33.799C32.3426 31.61 32.34 29.4209 32.3373 27.2309C30.8924 27.2909 29.4475 27.3718 28.0018 27.4172C27.7922 26.129 27.365 24.8081 26.4401 23.8645C25.74 23.1518 24.7874 22.76 23.8277 22.5736C22.8538 22.379 21.8558 22.3654 20.8675 22.4145C19.7322 22.4936 18.5816 22.72 17.5756 23.2845H17.5765ZM11.6766 54.069C12.9547 53.83 14.3567 53.9645 15.4716 54.6863C16.566 55.3672 17.2572 56.6354 17.3027 57.9354C16.6944 57.939 16.0861 57.9272 15.4778 57.9427C15.3262 57.3345 15.1407 56.6627 14.602 56.2909C13.447 55.5145 11.7355 55.559 10.733 56.5809C9.94633 57.3718 9.68946 58.5427 9.69125 59.6345C9.69838 60.7109 9.85982 61.8527 10.5002 62.7427C10.9319 63.3581 11.6757 63.6563 12.3955 63.7154C13.2285 63.8272 14.1462 63.5709 14.7001 62.8981C15.2121 62.3436 15.4127 61.5881 15.5599 60.8627C16.1815 60.869 16.8032 60.8618 17.4248 60.8663C17.2911 61.8345 17.0672 62.829 16.4919 63.6327C15.8765 64.4509 15.0176 65.1281 14.0125 65.3418C12.6407 65.7063 11.0942 65.5481 9.90441 64.729C8.70214 63.9218 8.03322 62.5045 7.82898 61.0854C7.59976 59.4663 7.73265 57.719 8.56479 56.2863C9.223 55.1309 10.3905 54.3118 11.6766 54.069ZM27.8332 56.9281C28.8348 56.7509 29.9381 56.92 30.7506 57.5736C31.4659 58.1172 31.9288 58.9454 32.1446 59.8172C32.4452 60.9872 32.3444 62.2636 31.8441 63.3618C31.3901 64.3518 30.4946 65.1545 29.4297 65.37C28.4308 65.5736 27.3213 65.4436 26.482 64.8209C25.7578 64.3063 25.2628 63.5063 25.03 62.6454C24.6822 61.4172 24.7731 60.0554 25.3225 58.9027C25.7997 57.8981 26.7407 57.1081 27.8332 56.9281ZM28.1026 58.5636C27.7583 58.6318 27.4631 58.85 27.2517 59.13C26.8111 59.6754 26.6934 60.4045 26.6568 61.09C26.6666 61.91 26.8263 62.8081 27.4337 63.399C27.8377 63.8136 28.4629 63.8572 28.9998 63.769C29.5564 63.6718 29.9648 63.1945 30.1905 62.6945C30.5116 61.889 30.5562 60.9781 30.3537 60.1363C30.2422 59.6372 29.9952 59.1581 29.6027 58.8309C29.1818 58.5018 28.6074 58.4536 28.1026 58.5636ZM51.0527 56.9636C52.0302 56.749 53.1184 56.8627 53.9603 57.4427C54.6283 57.899 55.1305 58.589 55.3927 59.3618C55.8511 60.6518 55.7958 62.1272 55.2259 63.3718C54.7701 64.3663 53.8649 65.1618 52.7973 65.3754C51.8198 65.5645 50.737 65.4472 49.9084 64.85C49.2458 64.3899 48.7606 63.6927 48.5037 62.9236C48.056 61.6281 48.1202 60.1536 48.7026 58.9136C49.1575 57.9581 50.0235 57.189 51.0527 56.9636ZM51.4773 58.5663C51.1767 58.6345 50.9038 58.8063 50.7067 59.0463C50.2028 59.6236 50.0547 60.429 50.0511 61.18C50.0583 61.9881 50.2447 62.87 50.8574 63.4336C51.2347 63.7936 51.7868 63.8445 52.2764 63.7863C52.6278 63.7481 52.9596 63.5709 53.1888 63.2972C53.6999 62.7309 53.8479 61.9281 53.8595 61.1827C53.8542 60.41 53.7034 59.5727 53.1603 58.9945C52.7464 58.5227 52.0561 58.4318 51.4773 58.5663ZM66.5672 56.9672C67.5483 56.7472 68.6408 56.859 69.4872 57.44C70.1544 57.8945 70.6565 58.5809 70.9214 59.3518C71.3825 60.6436 71.329 62.1227 70.76 63.3709C70.314 64.339 69.4471 65.1218 68.4116 65.3554C67.3859 65.5818 66.2336 65.4545 65.3747 64.8018C64.7005 64.31 64.2224 63.5709 63.9852 62.7663C63.5927 61.5109 63.6757 60.1027 64.2358 58.9127C64.6853 57.9609 65.5469 57.1972 66.5672 56.9672ZM66.9998 58.569C66.7001 58.639 66.4281 58.8118 66.2318 59.0536C65.7324 59.6309 65.5879 60.4327 65.5816 61.18C65.5924 61.9854 65.7752 62.8636 66.3843 63.4272C66.7902 63.819 67.3975 63.8545 67.922 63.7681C68.4723 63.67 68.879 63.2081 69.1002 62.71C69.3178 62.2027 69.3945 61.6409 69.3998 61.09C69.3615 60.3454 69.2197 59.5381 68.6837 58.9881C68.2689 58.5163 67.5768 58.4336 66.9998 58.569ZM17.8654 57.089C18.4434 57.07 19.0222 57.0845 19.6011 57.08C19.6109 58.0272 19.5975 58.9754 19.6082 59.9245C20.5723 58.9945 21.4919 58.0118 22.4712 57.1018C23.2551 57.0518 24.0454 57.0918 24.832 57.0827C23.8625 58.0363 22.8645 58.959 21.8825 59.899C22.7378 61.4781 23.5967 63.0545 24.4512 64.6336C24.5716 64.8536 24.7285 65.0499 24.8828 65.2472C24.1114 65.2563 23.339 65.2563 22.5675 65.2472C21.8977 63.9318 21.2796 62.5872 20.5982 61.279C20.4484 61.3018 20.3627 61.459 20.2512 61.5518C20.0452 61.789 19.7759 61.9727 19.6118 62.2445C19.5921 63.2472 19.6109 64.25 19.6037 65.2527C19.024 65.2527 18.4452 65.2527 17.8654 65.2527C17.8645 62.5318 17.8654 59.8109 17.8654 57.09V57.089ZM33.9231 57.0954C35.8843 57.06 37.8465 57.0909 39.8087 57.08C39.8087 59.8045 39.8158 62.529 39.806 65.2545C39.2111 65.25 38.6171 65.2545 38.0231 65.2509C38.0204 63.0645 38.0231 60.879 38.0213 58.6927C37.2275 58.69 36.4346 58.69 35.6408 58.6927C35.6408 60.0972 35.6408 61.5027 35.6408 62.9072C35.6408 63.6336 35.4125 64.4081 34.872 64.9072C34.1906 65.4727 33.255 65.3663 32.4354 65.3754C32.4336 64.8 32.43 64.2254 32.4372 63.6509C32.8911 63.6245 33.3719 63.7272 33.8053 63.5536C33.9391 63.3354 33.9168 63.0636 33.9275 62.8181C33.9239 60.9109 33.9302 59.0027 33.9239 57.0945L33.9231 57.0954ZM41.2928 57.0881C41.8716 57.0709 42.4513 57.0836 43.0302 57.08C43.04 58.0272 43.023 58.9763 43.04 59.9245C43.9586 59.0236 44.8585 58.1018 45.7718 57.1945C45.9012 57.0363 46.1134 57.0854 46.2909 57.0772C46.9456 57.09 47.6002 57.0627 48.2549 57.0936C47.2836 58.0409 46.2829 58.9563 45.3116 59.9045C46.158 61.4645 47.0071 63.0236 47.8508 64.5854C47.9775 64.8245 48.1425 65.0409 48.3119 65.2509C47.5405 65.2345 46.7609 65.2909 45.9939 65.2254C45.3179 63.9136 44.6819 62.5781 44.0327 61.2527C43.659 61.5245 43.3682 61.8945 43.0328 62.2118C43.0284 63.2272 43.0427 64.2427 43.0257 65.2581C42.4495 65.2472 41.8743 65.2536 41.299 65.2545C41.2731 62.5327 41.2856 59.81 41.2928 57.0881ZM56.3158 57.089C57.5823 57.069 58.8496 57.0854 60.117 57.08C60.7788 57.0872 61.4986 57.1518 62.0301 57.5981C62.7829 58.2381 62.9568 59.4527 62.4529 60.3027C62.3378 60.539 62.1122 60.69 61.9775 60.9118C62.2879 61.139 62.6794 61.2754 62.8917 61.6218C63.2788 62.2336 63.2458 63.0336 63.0192 63.699C62.8266 64.2872 62.345 64.7372 61.792 64.9709C61.239 65.2154 60.6263 65.2527 60.0323 65.2527C58.7926 65.2527 57.5537 65.2563 56.3149 65.25C56.3167 62.53 56.3149 59.809 56.3149 57.089H56.3158ZM58.1112 60.3009C58.748 60.2845 59.3866 60.3181 60.0234 60.2827C60.3132 60.2481 60.6834 60.2163 60.8332 59.9163C60.9518 59.6272 60.9893 59.2745 60.8519 58.9863C60.6887 58.7454 60.3632 58.7445 60.1072 58.709C59.4401 58.6736 58.7721 58.6981 58.104 58.6927C58.104 59.2281 58.0933 59.7645 58.1112 60.3009ZM58.104 61.86C58.1076 62.4472 58.088 63.0354 58.1103 63.6227C58.7658 63.6918 59.4472 63.6354 60.1126 63.6509C60.5068 63.6172 61.0268 63.6463 61.2649 63.2563C61.4236 62.9154 61.4406 62.4609 61.2087 62.1518C60.9688 61.9254 60.6147 61.9127 60.3088 61.8736C59.5739 61.8436 58.8381 61.8654 58.104 61.86Z" fill="white"/>
</g>
<defs>
<clipPath id="clip0_55_346">
<rect y="4" width="99" height="72" rx="4" fill="white"/>
</clipPath>
</defs>
</svg>
