<svg width="64" height="64" viewBox="0 0 64 64" fill="none" xmlns="http://www.w3.org/2000/svg">
<path d="M13.1082 49.5876C14.4415 47.0584 18.0413 42 21.7745 42C26.441 42 31.1075 44.3093 34.7741 45.2989C38.4406 46.2886 41.7738 45.6288 42.1071 48.268C41.7034 49.1471 40.7189 49.6854 39.4406 49.9872M13.1082 49.5876L20.7746 57.505M13.1082 49.5876C11.8304 48.268 10.3536 49.0377 9.77497 49.5876C9.33053 49.7208 8.24168 50.2372 7.44171 51.237C6.64173 52.2368 7.10838 53.4131 7.44171 53.8762C9.66385 56.2954 14.3748 61.3978 15.4414 62.4534C16.7747 63.773 19.108 62.4534 20.7746 61.1338C22.1078 60.0782 21.3301 58.2748 20.7746 57.505M29.4409 49.5876C31.9971 50.1242 36.4975 50.6822 39.4406 49.9872M39.4406 49.9872C43.6626 48.3145 52.7068 44.7711 55.1067 43.9794C58.1066 42.9897 57.1066 46.9484 55.1067 48.268C53.1067 49.5876 44.1071 56.5153 40.4405 56.5153C37.5073 56.5153 27.8854 56.5153 23.4411 56.5153L20.7746 57.505" stroke="#585858" stroke-linecap="round" stroke-linejoin="round"/>
<path d="M31.5 32V28C29.3333 27 25 23.4 25 17C25 9 31.5 5 37.5 5C43.5 5 49.5 9 49.5 17C49.5 23.4 45.5 27 43.5 28V32M31.5 32V36H33.5M31.5 32H43.5M43.5 32V36H41.5M33.5 36V40H41.5V36M33.5 36H41.5M51 26L56 29M54 18.5H59M51 9.5L56 6.5M23.5 25.5L18 29M21 17H16M23.5 9.5L18 6.5M32.5 17L36.5 21L42.5 14.5" stroke="#029678" stroke-linecap="round" stroke-linejoin="round"/>
</svg>
