<svg width="32" height="32" viewBox="0 0 32 32" fill="none" xmlns="http://www.w3.org/2000/svg">
<path d="M6 16V6H19M19 6L26 13M19 6V13H26M26 13V16" stroke="#8F8F8F" stroke-linecap="round" stroke-linejoin="round"/>
<path d="M29 20.9722C28.729 20.6481 27.8618 20 26.561 20C24.935 20 23.3089 21.1667 23.3089 23.3056C23.3089 25.4444 24.5285 27 26.561 27C28.187 27 28.8645 26.3519 29 26.0278M4 20V27H6.23577C7.86179 27 10.0976 25.95 10.0976 23.3056C10.0976 21.3611 8.06504 20 6.23577 20H4ZM16.6016 20C15.5176 20 13.3496 20.9722 13.3496 23.3056C13.3496 26.6111 15.9919 27 16.6016 27C17.2114 27 20.0569 26.6111 20.0569 23.3056C20.0569 20.9722 17.7534 20 16.6016 20Z" stroke="#029678" stroke-linecap="round" stroke-linejoin="round"/>
</svg>
