<svg width="48" height="48" viewBox="0 0 48 48" fill="none" xmlns="http://www.w3.org/2000/svg">
<rect width="48" height="48" rx="4" fill="#EDEDED"/>
<path d="M21.0537 25.7678L21.643 26.3571V26.3571C24.2466 28.9607 28.4679 28.9607 31.0716 26.3571L37.5537 19.875C39.8319 17.5968 39.8319 13.9032 37.5537 11.625V11.625C35.2755 9.34682 31.5819 9.34682 29.3037 11.625L26.3573 14.5714" stroke="#029678" stroke-linecap="round"/>
<path d="M26.9463 22.2322L26.357 21.6429V21.6429C23.7534 19.0393 19.5321 19.0393 16.9284 21.6429L10.4463 28.125C8.16812 30.4032 8.16812 34.0968 10.4463 36.375V36.375C12.7245 38.6532 16.4181 38.6532 18.6963 36.375L21.6427 33.4286" stroke="#029678" stroke-linecap="round"/>
</svg>
