<svg width="32" height="32" viewBox="0 0 32 32" fill="none" xmlns="http://www.w3.org/2000/svg">
<path d="M18.6667 18.72V28M18.6667 18.72L19.6667 17.12M18.6667 18.72L16.3333 17.44M18.6667 28L26.3333 23.2L27.3333 21.6L28 12.64M18.6667 28L16.3333 26.72V17.44M28 12.64L19.6667 17.12M28 12.64L25.3333 11.04L17 15.84M19.6667 17.12L17 15.84M6.66667 8.16L15.3333 4H17L25.3333 8.16M6.66667 8.16L15 12.64M6.66667 8.16V10.72L15 15.2M15 12.64H17M15 12.64V15.2M17 12.64L25.3333 8.16M17 12.64V15.2M25.3333 8.16V10.72L17 15.2M4 12.64L12.6667 17.12M4 12.64L4.66667 21.6L5.66667 23.2L13.3333 28M4 12.64L6.33333 11.04L15 15.84M12.6667 17.12L13.3333 18.72M12.6667 17.12L15 15.84M13.3333 18.72V28M13.3333 18.72L15.6667 17.44M13.3333 28L15.6667 26.72V17.44M15 15.84L15.6667 17.44M15 15.84H17M15 15.84V15.2M16.3333 17.44L17 15.84M17 15.84V15.2M15 15.2H17" stroke="#029678"/>
</svg>
