<svg width="130" height="52" viewBox="0 0 130 52" fill="none" xmlns="http://www.w3.org/2000/svg">
<path d="M128.641 26.4297C129.053 26.7691 129.382 27.1913 129.63 27.6964C129.877 28.1936 130 28.8013 130 29.5195C130 31.2794 129.292 32.6526 127.876 33.6391C126.467 34.6256 124.442 35.1189 121.799 35.1189C120.596 35.1189 119.448 35.0163 118.352 34.8111C117.265 34.6059 116.269 34.3257 115.363 33.9706V30.0285H115.783C116.401 30.4389 117.212 30.8414 118.217 31.236C119.229 31.6227 120.218 31.816 121.181 31.816C122.424 31.816 123.412 31.603 124.145 31.1768C124.878 30.7506 125.245 30.0956 125.245 29.2117C125.245 28.4461 124.977 27.8819 124.442 27.5188C123.907 27.1479 122.943 26.9624 121.551 26.9624H118.908V23.8135H121.428C122.581 23.8135 123.425 23.6478 123.96 23.3163C124.495 22.9769 124.763 22.4719 124.763 21.801C124.763 21.2091 124.467 20.779 123.874 20.5107C123.289 20.2423 122.507 20.1082 121.527 20.1082C120.975 20.1082 120.448 20.1634 119.946 20.2739C119.452 20.3844 118.966 20.5225 118.488 20.6882C118.044 20.8461 117.632 21.0197 117.253 21.2091C116.883 21.3985 116.598 21.5406 116.401 21.6353H115.969V17.9655C116.504 17.7524 117.377 17.5078 118.587 17.2315C119.806 16.9474 121.082 16.8054 122.416 16.8054C124.788 16.8054 126.562 17.1842 127.74 17.9418C128.917 18.6916 129.506 19.7373 129.506 21.0789C129.506 22.0812 129.181 22.9454 128.53 23.6714C127.888 24.3975 127.056 24.8829 126.035 25.1275V25.3051C126.414 25.3682 126.855 25.4985 127.357 25.6958C127.859 25.8931 128.287 26.1377 128.641 26.4297Z" fill="white"/>
<path d="M112.424 34.7756H107.829V23.0914L104.482 30.6322H101.332L97.985 23.0914V34.7756H93.6372V17.1487H98.9608L103.037 25.8497L107.101 17.1487H112.424V34.7756Z" fill="white"/>
<path d="M90.525 29.1407C90.525 30.0009 90.352 30.794 90.0062 31.5201C89.6686 32.2383 89.2033 32.8262 88.6104 33.284C87.9023 33.8285 87.1365 34.2152 86.313 34.4441C85.4978 34.6651 84.5014 34.7756 83.3239 34.7756H75.7646V17.1487H89.1292V20.5107H80.3595V23.7662H83.398C84.5014 23.7662 85.4896 23.8451 86.3624 24.0029C87.2353 24.1529 88.0176 24.4883 88.7093 25.0092C89.3433 25.4827 89.8044 26.0785 90.0926 26.7967C90.3809 27.507 90.525 28.2883 90.525 29.1407ZM85.7572 29.2709C85.7572 28.9789 85.7243 28.7026 85.6584 28.4422C85.5925 28.1818 85.4484 27.9411 85.2261 27.7201C85.0037 27.507 84.6991 27.3373 84.312 27.211C83.925 27.0848 83.3898 27.0216 82.7063 27.0216H80.3595V31.5083H82.7063C83.6533 31.5083 84.3985 31.3149 84.942 30.9282C85.4855 30.5415 85.7572 29.989 85.7572 29.2709Z" fill="white"/>
<path d="M71.4421 34.7756H66.8226V26.9624H60.5356V34.7756H55.916V17.1487H60.5356V23.6004H66.8226V17.1487H71.4421V34.7756Z" fill="white"/>
<path d="M5.62695 8.93561L23.0467 18.647L23.0094 24.3129L5.58967 14.6015L5.62695 8.93561Z" fill="#202020"/>
<path d="M44.4814 8.69244L26.9324 18.6229L26.8951 24.2888L44.4442 14.3584L44.4814 8.69244Z" fill="#202020"/>
<path d="M26.9312 18.6229L23.0457 18.6473L23.0084 24.3132L26.8939 24.2888L26.9312 18.6229Z" fill="url(#paint0_linear_55_289)"/>
<path fill-rule="evenodd" clip-rule="evenodd" d="M5.62583 8.93425L44.4801 8.69078L27.0528 0.112606L23.1674 0.136954L5.62583 8.93425ZM44.4797 8.69153L5.62549 8.93501L23.0453 18.6464L26.9307 18.622L44.4797 8.69153Z" fill="url(#paint1_linear_55_289)"/>
<path d="M19.6553 51.011L19.5325 31.3801L24.5612 28.5788L24.6839 48.2097L19.6553 51.011Z" fill="#202020"/>
<path d="M0.0131836 18.1768L17.5686 28.0964L22.5973 25.295L5.04185 15.3754L0.0131836 18.1768Z" fill="#202020"/>
<path d="M17.5698 28.0965L19.5341 31.3799L24.5627 28.5786L22.5985 25.2952L17.5698 28.0965Z" fill="url(#paint2_linear_55_289)"/>
<path fill-rule="evenodd" clip-rule="evenodd" d="M19.6597 51.0124L0.0172547 18.1785L1.14572 37.2491L3.10996 40.5325L19.6597 51.0124ZM0.0181881 18.1778L19.6606 51.0117L19.5379 31.3808L17.5736 28.0974L0.0181881 18.1778Z" fill="url(#paint3_linear_55_289)"/>
<path d="M49.6128 18.2334L32.3158 28.1529L27.3244 25.2884L44.6214 15.3688L49.6128 18.2334Z" fill="#202020"/>
<path d="M30.4004 51.3107L30.394 31.4606L25.4026 28.596L25.409 48.4461L30.4004 51.3107Z" fill="#202020"/>
<path d="M30.394 31.4607L32.3152 28.153L27.3238 25.2884L25.4027 28.5961L30.394 31.4607Z" fill="url(#paint4_linear_55_289)"/>
<path fill-rule="evenodd" clip-rule="evenodd" d="M49.6139 18.2337L30.4021 51.3111L46.7009 40.8186L48.622 37.5109L49.6139 18.2337ZM30.4012 51.3111L49.613 18.2337L32.316 28.1532L30.3948 31.461L30.4012 51.3111Z" fill="url(#paint5_linear_55_289)"/>
<defs>
<linearGradient id="paint0_linear_55_289" x1="25.0858" y1="18.6298" x2="25.3452" y2="24.2478" gradientUnits="userSpaceOnUse">
<stop stop-color="white"/>
<stop offset="1" stop-color="#202020"/>
</linearGradient>
<linearGradient id="paint1_linear_55_289" x1="25.4034" y1="0.474145" x2="25.4034" y2="19.3385" gradientUnits="userSpaceOnUse">
<stop stop-color="#BAE4F3"/>
<stop offset="1" stop-color="#0B85B2"/>
</linearGradient>
<linearGradient id="paint2_linear_55_289" x1="18.4986" y1="29.6583" x2="23.2714" y2="26.5299" gradientUnits="userSpaceOnUse">
<stop stop-color="white"/>
<stop offset="1" stop-color="#202020"/>
</linearGradient>
<linearGradient id="paint3_linear_55_289" x1="0.197489" y1="18.8426" x2="19.7857" y2="51.0882" gradientUnits="userSpaceOnUse">
<stop stop-color="#BAE4F3"/>
<stop offset="1" stop-color="#0B85B2"/>
</linearGradient>
<linearGradient id="paint4_linear_55_289" x1="31.3107" y1="29.892" x2="26.2535" y2="27.2268" gradientUnits="userSpaceOnUse">
<stop stop-color="white"/>
<stop offset="1" stop-color="#202020"/>
</linearGradient>
<linearGradient id="paint5_linear_55_289" x1="49.0722" y1="17.9209" x2="29.9461" y2="51.0483" gradientUnits="userSpaceOnUse">
<stop stop-color="#BAE4F3"/>
<stop offset="1" stop-color="#0B85B2"/>
</linearGradient>
</defs>
</svg>
