<svg width="94" height="38" viewBox="0 0 94 38" fill="none" xmlns="http://www.w3.org/2000/svg">
<path d="M93.0176 19.3139C93.3153 19.5619 93.5535 19.8705 93.7321 20.2396C93.9107 20.6029 94 21.047 94 21.5718C94 22.8579 93.488 23.8614 92.4639 24.5823C91.4457 25.3033 89.981 25.6637 88.0697 25.6637C87.2004 25.6637 86.3698 25.5887 85.5779 25.4388C84.7919 25.2888 84.0715 25.0841 83.4165 24.8246V21.9438H83.7202C84.1667 22.2437 84.7532 22.5378 85.4796 22.8262C86.212 23.1088 86.9265 23.2501 87.6231 23.2501C88.5222 23.2501 89.2367 23.0944 89.7666 22.783C90.2965 22.4715 90.5615 21.9928 90.5615 21.3469C90.5615 20.7875 90.368 20.3751 89.981 20.1098C89.5939 19.8388 88.8973 19.7032 87.8911 19.7032H85.9798V17.4021H87.8017C88.6353 17.4021 89.2456 17.281 89.6327 17.0388C90.0197 16.7908 90.2132 16.4217 90.2132 15.9314C90.2132 15.4989 89.9988 15.1846 89.5701 14.9885C89.1474 14.7924 88.5817 14.6944 87.8732 14.6944C87.4743 14.6944 87.0932 14.7347 86.73 14.8155C86.3727 14.8962 86.0215 14.9971 85.6761 15.1183C85.3546 15.2336 85.0569 15.3605 84.783 15.4989C84.515 15.6373 84.3096 15.7411 84.1667 15.8103H83.8541V13.1286C84.2412 12.9728 84.8723 12.794 85.7476 12.5922C86.6288 12.3846 87.5517 12.2808 88.5162 12.2808C90.231 12.2808 91.5142 12.5576 92.3656 13.1112C93.2171 13.6591 93.6428 14.4233 93.6428 15.4037C93.6428 16.1362 93.4076 16.7677 92.9372 17.2983C92.4728 17.8289 91.8714 18.1836 91.1331 18.3623V18.4921C91.407 18.5382 91.7255 18.6334 92.0887 18.7776C92.4519 18.9218 92.7616 19.1006 93.0176 19.3139Z" fill="#202020"/>
<path d="M81.2915 25.4129H77.969V16.8745L75.5487 22.3851H73.2712L70.8508 16.8745V25.4129H67.707V12.5317H71.5564L74.5037 18.8902L77.4421 12.5317H81.2915V25.4129Z" fill="#202020"/>
<path d="M65.4565 21.2951C65.4565 21.9237 65.3315 22.5033 65.0814 23.0339C64.8373 23.5588 64.5009 23.9884 64.0722 24.3229C63.5601 24.7209 63.0064 25.0035 62.411 25.1707C61.8215 25.3322 61.1011 25.4129 60.2496 25.4129H54.7837V12.5317H64.4473V14.9886H58.1061V17.3676H60.3032C61.1011 17.3676 61.8156 17.4253 62.4467 17.5406C63.0778 17.6502 63.6435 17.8953 64.1436 18.2759C64.6021 18.622 64.9355 19.0574 65.1439 19.5822C65.3523 20.1013 65.4565 20.6722 65.4565 21.2951ZM62.0091 21.3903C62.0091 21.1769 61.9853 20.975 61.9376 20.7847C61.89 20.5944 61.7858 20.4185 61.625 20.257C61.4643 20.1013 61.244 19.9773 60.9641 19.885C60.6843 19.7927 60.2972 19.7466 59.8031 19.7466H58.1061V23.0253H59.8031C60.4878 23.0253 61.0266 22.884 61.4196 22.6014C61.8126 22.3188 62.0091 21.9151 62.0091 21.3903Z" fill="#202020"/>
<path d="M51.6582 25.4129H48.3179V19.7033H43.7719V25.4129H40.4316V12.5317H43.7719V17.2465H48.3179V12.5317H51.6582V25.4129Z" fill="#202020"/>
<path d="M4.06885 6.52979L16.6647 13.6265L16.6377 17.767L4.04189 10.6703L4.06885 6.52979Z" fill="#202020"/>
<path d="M32.1636 6.35205L19.4743 13.6089L19.4473 17.7494L32.1366 10.4925L32.1636 6.35205Z" fill="#202020"/>
<path d="M19.4736 13.6089L16.6642 13.6267L16.6372 17.7672L19.4467 17.7494L19.4736 13.6089Z" fill="url(#paint0_linear_55_537)"/>
<path fill-rule="evenodd" clip-rule="evenodd" d="M4.06812 6.52886L32.1627 6.35094L19.5615 0.0822729L16.752 0.100066L4.06812 6.52886ZM32.1625 6.35149L4.06787 6.52942L16.6637 13.6262L19.4732 13.6084L32.1625 6.35149Z" fill="url(#paint1_linear_55_537)"/>
<path d="M14.2124 37.2771L14.1237 22.9314L17.7598 20.8843L17.8485 35.23L14.2124 37.2771Z" fill="#202020"/>
<path d="M0.00976562 13.283L12.7037 20.5319L16.3398 18.4848L3.64588 11.2358L0.00976562 13.283Z" fill="#202020"/>
<path d="M12.7046 20.532L14.1249 22.9314L17.761 20.8843L16.3407 18.4849L12.7046 20.532Z" fill="url(#paint2_linear_55_537)"/>
<path fill-rule="evenodd" clip-rule="evenodd" d="M14.2154 37.2782L0.0124037 13.2842L0.828369 27.2205L2.24867 29.6199L14.2154 37.2782ZM0.0130807 13.2837L14.2161 37.2777L14.1273 22.932L12.707 20.5326L0.0130807 13.2837Z" fill="url(#paint3_linear_55_537)"/>
<path d="M35.8735 13.3245L23.3664 20.5734L19.7573 18.48L32.2644 11.2311L35.8735 13.3245Z" fill="#202020"/>
<path d="M21.9819 37.4963L21.9773 22.9905L18.3682 20.8971L18.3728 35.403L21.9819 37.4963Z" fill="#202020"/>
<path d="M21.9771 22.9905L23.3662 20.5733L19.7571 18.4799L18.3679 20.8971L21.9771 22.9905Z" fill="url(#paint4_linear_55_537)"/>
<path fill-rule="evenodd" clip-rule="evenodd" d="M35.8746 13.3246L21.9829 37.4965L33.7682 29.8289L35.1574 27.4117L35.8746 13.3246ZM21.9823 37.4965L35.8739 13.3246L23.3668 20.5735L21.9777 22.9907L21.9823 37.4965Z" fill="url(#paint5_linear_55_537)"/>
<defs>
<linearGradient id="paint0_linear_55_537" x1="18.1393" y1="13.6139" x2="18.3308" y2="17.7192" gradientUnits="userSpaceOnUse">
<stop stop-color="white"/>
<stop offset="1" stop-color="#202020"/>
</linearGradient>
<linearGradient id="paint1_linear_55_537" x1="18.3688" y1="0.346474" x2="18.3688" y2="14.1319" gradientUnits="userSpaceOnUse">
<stop stop-color="#BAE4F3"/>
<stop offset="1" stop-color="#0B85B2"/>
</linearGradient>
<linearGradient id="paint2_linear_55_537" x1="13.3761" y1="21.6733" x2="16.8491" y2="19.4208" gradientUnits="userSpaceOnUse">
<stop stop-color="white"/>
<stop offset="1" stop-color="#202020"/>
</linearGradient>
<linearGradient id="paint3_linear_55_537" x1="0.089792" y1="13.7994" x2="14.3688" y2="37.2977" gradientUnits="userSpaceOnUse">
<stop stop-color="#BAE4F3"/>
<stop offset="1" stop-color="#0B85B2"/>
</linearGradient>
<linearGradient id="paint4_linear_55_537" x1="22.6399" y1="21.8442" x2="18.9664" y2="19.9285" gradientUnits="userSpaceOnUse">
<stop stop-color="white"/>
<stop offset="1" stop-color="#202020"/>
</linearGradient>
<linearGradient id="paint5_linear_55_537" x1="35.537" y1="13.1297" x2="21.5972" y2="37.2742" gradientUnits="userSpaceOnUse">
<stop stop-color="#BAE4F3"/>
<stop offset="1" stop-color="#0B85B2"/>
</linearGradient>
</defs>
</svg>
