<svg width="64" height="64" viewBox="0 0 64 64" fill="none" xmlns="http://www.w3.org/2000/svg">
<path d="M25.5 52.5H3C2.44772 52.5 2 52.0523 2 51.5V43M25.5 52.5L21.5 61M25.5 52.5H38.5M21.5 61H17.5M21.5 61H43M46.5 61H43M43 61L38.5 52.5M38.5 52.5H61C61.5523 52.5 62 52.0523 62 51.5V43M2 43V5.5C2 4.94772 2.44771 4.5 3 4.5H61C61.5523 4.5 62 4.94772 62 5.5V43M2 43H62" stroke="#8F8F8F" stroke-linecap="round" stroke-linejoin="round"/>
<circle cx="27.5" cy="47.5" r="1" stroke="#8F8F8F"/>
<circle cx="32.5" cy="47.5" r="1" stroke="#8F8F8F"/>
<circle cx="37.5" cy="47.5" r="1" stroke="#8F8F8F"/>
<path d="M43 21C43 28.2 35.5 35.1667 31.5 37.5C27.8333 35.1667 20 28.2 20 21C20 12 28.5 10 31.5 10C34.5 10 43 12 43 21Z" stroke="#029678" stroke-linecap="round" stroke-linejoin="round"/>
</svg>
